<svg width="283" height="247" viewBox="0 0 283 247" fill="none" xmlns="http://www.w3.org/2000/svg">
<g id="email-sent">
<g id="freepik--background-simple--inject-1--inject-16">
<path id="Vector" d="M226.068 204.056C226.068 204.056 247.652 198.426 264.542 170.276C283.473 138.72 275.351 83.6593 250.136 56.9101C226.744 32.1031 174.955 27.7399 144.906 39.8443C116.509 51.2872 94.7005 78.7894 77.3462 82.5404C59.9919 86.2914 38.401 80.1969 14.9452 105.996C-8.51052 131.795 -3.35209 189.981 23.3902 209.214C50.1324 228.448 89.542 205.928 123.793 190.445C158.044 174.963 163.667 208.743 226.068 204.056Z" fill="#1362AA"/>
<g id="Group" opacity="0.7">
<path id="Vector_2" opacity="0.7" d="M226.068 204.056C226.068 204.056 247.652 198.426 264.542 170.276C283.473 138.72 275.351 83.6593 250.136 56.9101C226.744 32.1031 174.955 27.7399 144.906 39.8443C116.509 51.2872 94.7005 78.7894 77.3462 82.5404C59.9919 86.2914 38.401 80.1969 14.9452 105.996C-8.51052 131.795 -3.35209 189.981 23.3902 209.214C50.1324 228.448 89.542 205.928 123.793 190.445C158.044 174.963 163.667 208.743 226.068 204.056Z" fill="white"/>
</g>
</g>
<g id="vehicle">
<g id="freepik--Character--inject-1--inject-16">
<path id="Vector_3" d="M218.918 147.235V147.193C213.175 145.286 204.364 145.934 203.055 146.715C201.664 147.646 200.468 148.842 199.537 150.233C196.444 154.622 194.226 159.566 193.006 164.794L130.549 170.6C128.247 165.631 124.778 161.177 121.294 158.488C120.299 157.655 119.152 157.022 117.916 156.623C117.373 156.558 116.822 156.577 116.284 156.68C114.018 150.114 110.809 143.78 106.797 143.379C98.3524 142.534 83.616 145.363 79.5976 153.555C75.5793 161.747 74.3196 182.197 74.3196 182.197L71.5046 185.012C69.4515 181.013 66.5958 177.479 63.116 174.632C62.1239 173.794 60.9759 173.16 59.738 172.767C59.0342 172.57 56.2193 173.007 53.2706 173.971C53.1509 173.858 53.0383 173.745 52.9117 173.64C50.0967 171.282 44.326 169.995 41.1029 176.004C37.8797 182.014 41.7503 193.394 43.6786 195.97C44.615 197.285 45.7894 198.414 47.141 199.298C49.4141 204.928 53.4747 212.107 59.7239 212.437C61.8644 212.552 64.0047 212.206 65.9996 211.422C67.9946 210.637 69.7976 209.433 71.2864 207.891C75.34 203.669 75.7763 197.736 74.2492 191.93L74.9037 190.973C74.9037 190.973 76.3604 193.049 81.9411 192.212C83.5589 192.045 85.0926 191.409 86.3536 190.382C88.9715 197.06 93.201 203.753 99.9217 204.752C102.806 205.194 105.752 205.009 108.558 204.209C111.365 203.41 113.966 202.016 116.185 200.122C117.475 199.008 118.601 197.716 119.528 196.286C123.291 196.079 126.836 194.454 129.451 191.74C131.79 189.245 133.128 185.976 133.209 182.556L141.52 181.585C146.737 183.912 152.43 184.978 158.135 184.696C163.599 184.345 168.771 182.106 172.766 178.362L191.704 176.743C192.021 184.083 194.66 190.818 200.853 194.527C203.224 195.942 205.873 196.827 208.619 197.119C211.365 197.412 214.141 197.106 216.757 196.223C225.491 193.295 227.56 180.318 228.123 172.429C228.995 159.762 224.956 149.03 218.918 147.235Z" fill="#263238" stroke="#263238" stroke-width="0.75" stroke-linecap="round" stroke-linejoin="round"/>
<path id="Vector_4" d="M103.292 200.678C102.566 201.606 101.64 202.359 100.583 202.88" stroke="white" stroke-width="0.5" stroke-linecap="round" stroke-linejoin="round"/>
<path id="Vector_5" d="M106.706 183.999C106.706 183.999 107.543 193.148 104.426 198.954" stroke="white" stroke-width="0.5" stroke-linecap="round" stroke-linejoin="round"/>
<path id="Vector_6" d="M109.175 194.105C108.38 197.623 106.797 201.037 103.729 202.55" stroke="white" stroke-width="0.5" stroke-linecap="round" stroke-linejoin="round"/>
<path id="Vector_7" d="M112.997 183.302C112.997 183.302 114.405 198.51 106.882 202.184" stroke="white" stroke-width="0.5" stroke-linecap="round" stroke-linejoin="round"/>
<path id="Vector_8" d="M116.15 182.95C116.15 182.95 117.557 198.165 110.027 201.832" stroke="white" stroke-width="0.5" stroke-linecap="round" stroke-linejoin="round"/>
<path id="Vector_9" d="M211.091 193.612C210.283 194.634 209.278 195.483 208.136 196.11" stroke="white" stroke-width="0.5" stroke-linecap="round" stroke-linejoin="round"/>
<path id="Vector_10" d="M216.75 174.618C216.75 174.618 216.3 185.026 212.437 191.649" stroke="white" stroke-width="0.5" stroke-linecap="round" stroke-linejoin="round"/>
<path id="Vector_11" d="M217.756 186.145C216.49 190.15 214.463 194.034 211.261 195.723" stroke="white" stroke-width="0.5" stroke-linecap="round" stroke-linejoin="round"/>
<path id="Vector_12" d="M223 173.844C223 173.844 222.247 191.184 214.386 195.336" stroke="white" stroke-width="0.5" stroke-linecap="round" stroke-linejoin="round"/>
<path id="Vector_13" d="M226.138 173.464C226.138 173.464 225.385 190.797 217.524 194.956" stroke="white" stroke-width="0.5" stroke-linecap="round" stroke-linejoin="round"/>
<path id="Vector_14" d="M61.7079 210.087C61.109 211.004 60.3193 211.782 59.3926 212.367" stroke="white" stroke-width="0.5" stroke-linecap="round" stroke-linejoin="round"/>
<path id="Vector_15" d="M62.8197 195.287C62.8197 195.287 64.8043 203.028 62.5664 208.44" stroke="white" stroke-width="0.5" stroke-linecap="round" stroke-linejoin="round"/>
<path id="Vector_16" d="M66.5011 203.598C66.1844 206.73 65.0936 209.883 62.3701 211.614" stroke="white" stroke-width="0.5" stroke-linecap="round" stroke-linejoin="round"/>
<path id="Vector_17" d="M68.76 193.781C68.76 193.781 72.0676 206.624 65.3398 210.854" stroke="white" stroke-width="0.5" stroke-linecap="round" stroke-linejoin="round"/>
<path id="Vector_18" d="M71.7298 193.021C71.7298 193.021 75.0444 205.864 68.3096 210.101" stroke="white" stroke-width="0.5" stroke-linecap="round" stroke-linejoin="round"/>
<path id="Vector_19" d="M95.9877 178.784C97.6626 188.362 96.6141 196.554 93.6583 197.082C90.7026 197.609 86.9376 190.248 85.2627 180.67C83.5878 171.092 84.6364 162.901 87.5991 162.373C90.5619 161.845 94.3128 169.199 95.9877 178.784Z" fill="#92E3A9" stroke="#263238" stroke-linecap="round" stroke-linejoin="round"/>
<path id="Vector_20" d="M94.4961 178.988C94.9606 182.662 94.5313 185.737 93.525 185.864C92.5186 185.991 91.3363 183.119 90.8718 179.446C90.4074 175.772 90.8718 172.69 91.843 172.563C92.8142 172.436 94.0317 175.315 94.4961 178.988Z" fill="#DBF4FF" stroke="#263238" stroke-linecap="round" stroke-linejoin="round"/>
<path id="Vector_21" d="M87.4375 170.206C87.5373 168.973 87.7326 167.749 88.0216 166.546" stroke="#263238" stroke-width="0.75" stroke-linecap="round" stroke-linejoin="round"/>
<path id="Vector_22" d="M92.1028 193.626C90.1554 189.727 88.7626 185.575 87.9648 181.29C87.4348 178.259 87.2202 175.181 87.3244 172.106" stroke="#263238" stroke-width="0.75" stroke-linecap="round" stroke-linejoin="round"/>
<path id="Vector_23" d="M54.5715 207.249C56.6989 206.66 56.8761 200.598 54.9672 193.71C53.0583 186.822 49.7862 181.716 47.6587 182.306C45.5313 182.895 45.3541 188.957 47.263 195.845C49.1719 202.733 52.444 207.839 54.5715 207.249Z" fill="#92E3A9" stroke="#263238" stroke-linecap="round" stroke-linejoin="round"/>
<path id="Vector_24" d="M54.2694 193.985C54.9379 196.603 54.9028 198.869 54.1849 199.052C53.4671 199.235 52.3552 197.258 51.6866 194.647C51.0181 192.036 51.0533 189.756 51.7711 189.58C52.4889 189.404 53.6008 191.367 54.2694 193.985Z" stroke="#263238" stroke-width="0.75" stroke-linecap="round" stroke-linejoin="round"/>
<path id="Vector_25" d="M48.372 188.264C48.3328 187.362 48.3633 186.458 48.4635 185.561" stroke="#263238" stroke-width="0.75" stroke-linecap="round" stroke-linejoin="round"/>
<path id="Vector_26" d="M53.8538 204.795C52.094 202.147 50.713 199.267 49.7509 196.237C49.0933 194.092 48.6594 191.885 48.4561 189.65" stroke="#263238" stroke-width="0.75" stroke-linecap="round" stroke-linejoin="round"/>
<path id="Vector_27" d="M205.427 76.1574C198.009 60.851 194.807 59.5209 189.874 59.2675C184.941 59.0142 173.294 57.5645 160.317 59.6405C160.317 59.6405 124.116 59.0072 96.1072 75.9744C66.8667 93.6876 52.637 109.247 50.6454 117.312C48.6538 125.377 41.8556 146.391 38.6325 158.439C35.4093 170.487 33.2137 181.1 37.3235 190.853C39.8077 196.751 42.4538 198.524 45.8529 198.496C45.3328 197.563 44.8744 196.597 44.4806 195.604C41.1026 187.236 41.5108 175.266 45.3673 174.491C49.2238 173.717 51.5251 181.733 53.8545 190.473C54.3168 192.4 54.9431 194.284 55.7264 196.103C61.4901 193.929 70.7232 189.066 82.9965 184.013C81.8313 176.337 81.8052 168.53 82.9191 160.846C84.7347 148.833 92.4125 146.18 95.7553 153.492C98.521 159.516 99.5485 173 99.823 177.546C104.749 175.85 108.873 174.731 111.414 174.576C111.414 174.576 153.413 165.089 184.371 164.329C215.328 163.569 230.818 162.83 230.818 162.83C230.818 162.83 212.844 91.4357 205.427 76.1574Z" fill="white"/>
<g id="Group_2">
<path id="Vector_28" d="M106.452 150.008C106.452 150.008 102.194 155.835 97.0146 157.081C98.8444 163.795 99.5974 173.731 99.8296 177.489C104.228 175.976 107.965 174.914 110.527 174.604C110.899 172.408 111.125 171.008 111.125 171.008L106.452 150.008Z" fill="#92E3A9"/>
<path id="Vector_29" opacity="0.2" d="M54.0377 191.107C55.9941 191.304 57.296 192.148 61.2721 191.156C68.3096 189.404 63.2497 175.822 74.9248 170.276C77.1912 169.133 79.6575 168.44 82.1874 168.235C82.2924 165.75 82.5273 163.272 82.8911 160.811C83.2011 158.394 83.9148 156.046 85.0024 153.865C81.8144 152.887 81.2373 151.951 75.8044 154.533C64.1223 160.079 65.8746 174.386 58.8724 176.138C53.2847 177.546 52.975 175.301 48.7314 176.342C50.716 179.157 52.2502 184.639 53.7984 190.417C53.918 190.678 53.9743 190.868 54.0377 191.107Z" fill="#92E3A9"/>
<g id="Group_3" style="mix-blend-mode:multiply">
<g id="Vector_30" style="mix-blend-mode:multiply" opacity="0.2">
<path d="M42.5446 179.08C39.2722 181.332 37.3229 184.71 36.2109 187.56C36.5126 188.684 36.8839 189.789 37.3228 190.868C39.8071 196.765 42.4531 198.538 45.8522 198.51C45.3322 197.577 44.8738 196.611 44.4799 195.618C42.3335 190.29 41.7564 183.513 42.5446 179.08Z" fill="#92E3A9"/>
</g>
</g>
<g id="Vector_31" style="mix-blend-mode:multiply" opacity="0.2">
<path d="M189.874 59.2675L188.6 59.1901C137.276 72.322 116.396 134.181 109.211 163.992C109.598 166.954 110.02 169.861 110.478 172.69C111.35 172.521 110.745 174.576 111.414 174.541C111.414 174.541 153.413 165.054 184.371 164.294C215.328 163.534 230.818 162.795 230.818 162.795C230.818 162.795 212.844 91.4356 205.427 76.1574C198.009 60.8791 194.807 59.4927 189.874 59.2675Z" fill="#92E3A9"/>
</g>
</g>
<path id="Vector_32" d="M205.427 76.1574C198.009 60.851 194.807 59.5209 189.874 59.2675C184.941 59.0142 173.294 57.5645 160.317 59.6405C160.317 59.6405 124.116 59.0072 96.1072 75.9744C66.8667 93.6876 52.637 109.247 50.6454 117.312C48.6538 125.377 41.8556 146.391 38.6325 158.439C35.4093 170.487 33.2137 181.1 37.3235 190.853C39.8077 196.751 42.4538 198.524 45.8529 198.496C45.3328 197.563 44.8744 196.597 44.4806 195.604C41.1026 187.236 41.5108 175.266 45.3673 174.491C49.2238 173.717 51.5251 181.733 53.8545 190.473C54.3168 192.4 54.9431 194.284 55.7264 196.103C61.4901 193.929 70.7232 189.066 82.9965 184.013C81.8313 176.337 81.8052 168.53 82.9191 160.846C84.7347 148.833 92.4125 146.18 95.7553 153.492C98.521 159.516 99.5485 173 99.823 177.546C104.749 175.85 108.873 174.731 111.414 174.576C111.414 174.576 153.413 165.089 184.371 164.329C215.328 163.569 230.818 162.83 230.818 162.83C230.818 162.83 212.844 91.4357 205.427 76.1574Z" stroke="#263238" stroke-linecap="round" stroke-linejoin="round"/>
<path id="Vector_33" opacity="0.2" d="M51.7998 153.4C52.2829 153.802 52.8709 154.057 53.4944 154.136C54.1179 154.215 54.7508 154.113 55.3185 153.844C57.5353 152.957 57.7605 149.621 57.7605 149.621L61.0822 149.403L61.7507 138.981L54.4318 141.859C54.4318 141.859 52.4684 152.07 51.7998 153.4Z" fill="#92E3A9"/>
<path id="Vector_34" d="M42.2011 183.879C40.0997 184.996 38.1127 186.316 36.2686 187.82C36.5603 188.851 36.9128 189.864 37.3242 190.853C39.8084 196.751 42.4545 198.524 45.8535 198.496C45.3335 197.563 44.8751 196.597 44.4812 195.604C43.0386 191.86 42.2667 187.891 42.2011 183.879V183.879Z" fill="#263238" stroke="#263238" stroke-width="0.75" stroke-linecap="round" stroke-linejoin="round"/>
<path id="Vector_35" d="M53.4112 178.066C53.2207 178.066 53.034 178.013 52.8706 177.916C52.7072 177.818 52.573 177.678 52.4822 177.51C52.3541 177.267 52.3266 176.984 52.4056 176.72C52.4845 176.457 52.6637 176.235 52.9045 176.103C53.0734 176.012 66.7682 167.524 78.1125 161.493C78.235 161.428 78.3691 161.388 78.5071 161.374C78.6452 161.361 78.7846 161.375 78.9172 161.416C79.0499 161.456 79.1732 161.522 79.2803 161.611C79.3874 161.699 79.476 161.807 79.5411 161.93C79.6063 162.052 79.6467 162.186 79.66 162.324C79.6734 162.462 79.6594 162.602 79.6189 162.734C79.5783 162.867 79.5121 162.99 79.4239 163.097C79.3357 163.204 79.2273 163.293 79.1048 163.358C67.7675 169.382 54.0797 177.862 53.9108 177.954C53.7568 178.034 53.5846 178.073 53.4112 178.066V178.066Z" fill="#263238" stroke="#263238" stroke-miterlimit="10"/>
<path id="Vector_36" d="M71.3148 107.523L70.8292 119.607C70.7237 121.253 71.6808 122.048 72.9405 121.338L92.399 108.67C93.1143 108.172 93.6911 107.499 94.0752 106.716C94.4593 105.933 94.6381 105.066 94.5947 104.195L94.475 90.7178C94.3343 89.4933 93.5039 88.9937 92.4834 89.5215C88.824 91.4145 81.7584 97.8186 73.3135 103.779C72.7413 104.233 72.2685 104.799 71.9247 105.443C71.5808 106.087 71.3732 106.795 71.3148 107.523V107.523Z" fill="#92E3A9" stroke="#263238" stroke-linecap="round" stroke-linejoin="round"/>
<path id="Vector_37" d="M84.46 104.117L93.9675 106.439" stroke="#263238" stroke-linecap="round" stroke-linejoin="round"/>
<path id="Vector_38" d="M71.4551 121.394L77.3243 108.431" stroke="#263238" stroke-linecap="round" stroke-linejoin="round"/>
<g id="Vector_39">
<path d="M71.4268 107.122L80.0546 108.199C80.9484 108.333 82.0603 107.594 82.8696 106.313L94.1295 90.19" fill="#DBF4FF"/>
<path d="M71.4268 107.122L80.0546 108.199C80.9484 108.333 82.0603 107.594 82.8696 106.313L94.1295 90.19" stroke="#263238" stroke-linecap="round" stroke-linejoin="round"/>
</g>
<path id="Vector_40" d="M119.598 85.0738L121.597 115.335C121.648 116.208 121.878 117.062 122.27 117.844C122.663 118.626 123.211 119.32 123.881 119.883C124.551 120.446 125.328 120.867 126.166 121.119C127.004 121.372 127.884 121.451 128.754 121.352L195.975 112.625C196.901 112.519 197.793 112.212 198.589 111.727C199.385 111.242 200.067 110.589 200.586 109.815C201.105 109.041 201.45 108.163 201.597 107.243C201.744 106.322 201.689 105.38 201.436 104.483L192.949 74.4754C192.548 73.0494 191.665 71.806 190.452 70.9557C189.239 70.1055 187.769 69.7006 186.292 69.8096C175.398 70.6119 149.268 72.9553 124.602 78.4516C123.121 78.788 121.806 79.6372 120.891 80.849C119.975 82.0608 119.517 83.5572 119.598 85.0738V85.0738Z" fill="#DBF4FF" stroke="#263238" stroke-linecap="round" stroke-linejoin="round"/>
<path id="Vector_41" d="M169.563 94.4547L200.254 108.994" stroke="#263238" stroke-linecap="round" stroke-linejoin="round"/>
<path id="Vector_42" d="M124.145 120.022L150.063 96.8263" stroke="#263238" stroke-linecap="round" stroke-linejoin="round"/>
<path id="Vector_43" d="M119.823 84.2786L157.016 99.5709C158.413 100.141 159.945 100.294 161.426 100.01C162.908 99.7268 164.275 99.0192 165.362 97.9734L191.872 72.9413" stroke="#263238" stroke-linecap="round" stroke-linejoin="round"/>
<path id="Vector_44" d="M196.305 116.854C203.84 116.669 209.8 110.516 209.618 103.11C209.436 95.7055 203.18 89.8528 195.645 90.0383C188.11 90.2237 182.15 96.3771 182.332 103.782C182.514 111.187 188.77 117.04 196.305 116.854Z" fill="#FF0E0E"/>
<path id="Vector_45" d="M194.137 110.712H194.102C193.88 110.712 193.66 110.66 193.462 110.56C193.264 110.46 193.093 110.314 192.962 110.135L188.465 103.928C188.245 103.625 188.155 103.248 188.214 102.879C188.273 102.511 188.475 102.18 188.778 101.961C189.08 101.741 189.457 101.651 189.826 101.71C190.195 101.769 190.525 101.972 190.745 102.274L194.102 106.905L202.124 95.8206C202.344 95.5182 202.674 95.3154 203.043 95.2567C203.412 95.1979 203.789 95.2881 204.091 95.5075C204.394 95.7268 204.596 96.0572 204.655 96.4261C204.714 96.7949 204.624 97.172 204.404 97.4744L195.256 110.142C195.126 110.317 194.958 110.46 194.763 110.559C194.569 110.657 194.355 110.71 194.137 110.712Z" fill="white"/>
<path id="Vector_46" d="M150.084 141.366C150.084 141.366 174.011 136.778 190.408 137.102L191.394 141.043C191.394 141.043 156.967 142.675 150.408 145.969L150.084 141.366Z" fill="#263238" stroke="#263238" stroke-width="0.75" stroke-linecap="round" stroke-linejoin="round"/>
<path id="Vector_47" d="M150.408 145.955L151.112 149.896C151.185 150.335 151.427 150.728 151.786 150.991C152.145 151.254 152.592 151.366 153.033 151.303C159.036 150.445 180.106 147.552 191.035 147.82C191.305 147.828 191.572 147.772 191.816 147.658C192.059 147.543 192.273 147.372 192.438 147.16C192.603 146.947 192.716 146.699 192.767 146.434C192.818 146.17 192.806 145.897 192.731 145.638L191.422 141.057" stroke="#263238" stroke-linecap="round" stroke-linejoin="round"/>
<path id="Vector_48" d="M63.0948 138.995L62.9611 122.738L63.7704 106.024C63.7765 105.864 63.7341 105.706 63.649 105.571C63.5638 105.435 63.4398 105.329 63.2931 105.265C63.1464 105.201 62.9838 105.183 62.8267 105.213C62.6695 105.243 62.5251 105.32 62.4122 105.433C59.3861 108.53 54.2065 113.216 52.6724 117.059C50.6808 122.034 48.3232 146.525 48.3232 146.525L63.0948 138.995Z" fill="#263238" stroke="#263238" stroke-width="0.75" stroke-linecap="round" stroke-linejoin="round"/>
<path id="Vector_49" d="M44.3544 135.729H41.9968C40.7959 135.729 39.8223 136.703 39.8223 137.904V150.05C39.8223 151.251 40.7959 152.225 41.9968 152.225H44.3544C45.5554 152.225 46.5289 151.251 46.5289 150.05V137.904C46.5289 136.703 45.5554 135.729 44.3544 135.729Z" fill="#263238" stroke="#263238" stroke-width="0.75" stroke-linecap="round" stroke-linejoin="round"/>
<path id="Vector_50" d="M45.8389 124.385C46.9549 124.599 48.0448 124.932 49.0902 125.377C49.957 125.804 50.7447 126.375 51.4196 127.066L54.9383 122.414C54.9383 122.414 49.7798 120.254 48.8016 118.938L47.8305 117.615L45.8389 124.385Z" fill="white"/>
<g id="Group_4">
<g id="Vector_51" style="mix-blend-mode:multiply" opacity="0.5">
<path d="M48.7946 118.938L47.8868 117.678L47.7812 117.749L45.8389 124.364C45.8389 124.364 46.2119 124.434 46.7397 124.561L51.7714 120.915C50.6717 120.434 49.6644 119.765 48.7946 118.938V118.938Z" fill="#92E3A9"/>
</g>
</g>
<path id="Vector_52" d="M45.8389 124.385C46.9549 124.599 48.0448 124.932 49.0902 125.377C49.957 125.804 50.7447 126.375 51.4196 127.066L54.9383 122.414C54.9383 122.414 49.7798 120.254 48.8016 118.938L47.8305 117.615L45.8389 124.385Z" stroke="#263238" stroke-width="0.75" stroke-linecap="round" stroke-linejoin="round"/>
<path id="Vector_53" d="M53.2706 120.437L48.9707 125.919L49.5548 127.784L56.1067 120.979L53.2706 120.437Z" fill="#92E3A9" stroke="#263238" stroke-linecap="round" stroke-linejoin="round"/>
<path id="Vector_54" d="M46.3877 104.948C43.4813 102.696 35.909 104.131 34.4241 109.466C33.5092 112.752 34.0159 117.678 34.0159 117.678L42.6438 115.849L43.3476 116.911C44.755 119.022 47.8023 117.615 48.5904 116.911C49.0197 116.538 48.9916 115.44 48.879 114.533L49.2238 114.455C49.2238 114.455 49.2872 107.207 46.3877 104.948Z" fill="#263238" stroke="#263238" stroke-width="0.75" stroke-linecap="round" stroke-linejoin="round"/>
<path id="Vector_55" d="M43.1646 115.201C39.3777 114.779 35.5445 115.143 31.9048 116.271C26.2748 118.157 25.4092 119.789 29.4417 119.691C33.4741 119.592 43.1646 115.201 43.1646 115.201Z" fill="#263238" stroke="#263238" stroke-width="0.75" stroke-linecap="round" stroke-linejoin="round"/>
<path id="Vector_56" d="M36.2118 113.153C36.8686 113.153 37.4011 112.425 37.4011 111.528C37.4011 110.63 36.8686 109.902 36.2118 109.902C35.5549 109.902 35.0225 110.63 35.0225 111.528C35.0225 112.425 35.5549 113.153 36.2118 113.153Z" fill="#92E3A9"/>
<path id="Vector_57" d="M62.961 122.738C62.961 122.738 55.255 120.782 52.8834 122.583C50.5118 124.385 49.9066 127.362 50.6666 130.972C51.4266 134.582 53.2775 144.076 53.2775 144.076L63.0947 138.995L62.961 122.738Z" fill="#263238" stroke="#263238" stroke-width="0.75" stroke-linecap="round" stroke-linejoin="round"/>
<path id="Vector_58" d="M50.7293 142.563C50.7293 142.563 50.3141 146.208 49.8285 146.722C49.3429 147.235 36.5348 136.475 35.7536 135.462C34.9725 134.448 35.5073 130.831 35.7536 129.698C35.9999 128.565 35.5847 127.946 34.3461 128.727C33.1075 129.508 33.4383 132.759 33.4383 132.759C33.4383 132.759 29.6592 131.852 28.9062 131.746C28.1532 131.64 27.4987 132.576 27.6113 133.322C27.7239 134.068 28.7162 134.132 28.7162 134.132C28.4623 135.212 28.5333 136.343 28.9203 137.383C29.5818 138.748 30.3278 139.607 31.7352 139.945C33.1874 140.171 34.6577 140.261 36.1266 140.212C36.1266 140.212 42.6714 146.447 44.5715 148.777C46.4716 151.106 50.4759 154.273 52.4675 153.703C54.4591 153.133 56.3592 143.189 56.3592 143.189L50.7293 142.563Z" fill="white"/>
<g id="Group_5">
<g id="Vector_59" style="mix-blend-mode:multiply" opacity="0.5">
<path d="M49.8291 146.722L53.573 147.967C53.6917 148.753 53.5258 149.555 53.105 150.228C52.6843 150.902 52.0366 151.403 51.2788 151.641C49.625 152.19 46.6552 150.311 44.5439 148.727L44.6073 148.805C46.5426 151.141 50.5117 154.301 52.5033 153.731C54.4949 153.161 56.395 143.217 56.395 143.217L50.7298 142.513C50.7298 142.513 50.3146 146.208 49.8291 146.722Z" fill="#92E3A9"/>
</g>
</g>
<path id="Vector_60" d="M50.7293 142.563C50.7293 142.563 50.3141 146.208 49.8285 146.722C49.3429 147.235 36.5348 136.475 35.7536 135.462C34.9725 134.448 35.5073 130.831 35.7536 129.698C35.9999 128.565 35.5847 127.946 34.3461 128.727C33.1075 129.508 33.4383 132.759 33.4383 132.759C33.4383 132.759 29.6592 131.852 28.9062 131.746C28.1532 131.64 27.4987 132.576 27.6113 133.322C27.7239 134.068 28.7162 134.132 28.7162 134.132C28.4623 135.212 28.5333 136.343 28.9203 137.383C29.5818 138.748 30.3278 139.607 31.7352 139.945C33.1874 140.171 34.6577 140.261 36.1266 140.212C36.1266 140.212 42.6714 146.447 44.5715 148.777C46.4716 151.106 50.4759 154.273 52.4675 153.703C54.4591 153.133 56.3592 143.189 56.3592 143.189L50.7293 142.563Z" stroke="#263238" stroke-width="0.75" stroke-linecap="round" stroke-linejoin="round"/>
<path id="Vector_61" d="M37.9285 137.439L36.127 140.24L37.0489 140.867L38.8927 138.228L37.9285 137.439Z" fill="#263238" stroke="#263238" stroke-miterlimit="10"/>
<path id="Vector_62" d="M37.3092 140.078C37.6979 140.078 38.0129 139.763 38.0129 139.375C38.0129 138.986 37.6979 138.671 37.3092 138.671C36.9205 138.671 36.6055 138.986 36.6055 139.375C36.6055 139.763 36.9205 140.078 37.3092 140.078Z" fill="white" stroke="#263238" stroke-width="0.75" stroke-linecap="round" stroke-linejoin="round"/>
<path id="Vector_63" d="M35.585 118.579C35.585 118.579 36.0142 119.642 36.7321 121.507C37.4499 123.372 41.3064 127.305 43.1924 127.531C45.0785 127.756 47.3375 120.901 47.6964 119.487C47.816 119.022 47.9357 118.276 47.9357 118.276C47.9357 118.276 50.3073 117.157 49.7584 115.806C49.2094 114.455 48.0975 113.836 47.5697 114.251C47.0419 114.666 46.9504 116.419 46.1622 116.433C45.374 116.447 44.9447 116.2 44.248 115.271C43.5513 114.342 36.3309 116.271 35.585 118.579Z" fill="white"/>
<g id="Group_6">
<path id="Vector_64" opacity="0.5" d="M44.2349 115.271C43.5312 114.349 36.3319 116.278 35.5859 118.579L35.9941 119.621C38.7461 117.961 41.7367 116.734 44.8613 115.982C44.6278 115.768 44.4179 115.53 44.2349 115.271V115.271Z" fill="#92E3A9"/>
<g id="Group_7" style="mix-blend-mode:multiply">
<g id="Vector_65" style="mix-blend-mode:multiply" opacity="0.5">
<path d="M49.6675 115.616C49.0904 114.406 48.07 113.857 47.5563 114.251C47.2343 114.671 46.9954 115.149 46.8525 115.658C47.7873 115.554 48.73 115.54 49.6675 115.616V115.616Z" fill="#92E3A9"/>
</g>
</g>
</g>
<path id="Vector_66" d="M35.585 118.579C35.585 118.579 36.0142 119.642 36.7321 121.507C37.4499 123.372 41.3064 127.305 43.1924 127.531C45.0785 127.756 47.3375 120.901 47.6964 119.487C47.816 119.022 47.9357 118.276 47.9357 118.276C47.9357 118.276 50.3073 117.157 49.7584 115.806C49.2094 114.455 48.0975 113.836 47.5697 114.251C47.0419 114.666 46.9504 116.419 46.1622 116.433C45.374 116.447 44.9447 116.2 44.248 115.271C43.5513 114.342 36.3309 116.271 35.585 118.579Z" stroke="#263238" stroke-width="0.75" stroke-linecap="round" stroke-linejoin="round"/>
<path id="Vector_67" d="M38.1394 119.086C38.2661 119.515 38.2239 119.909 38.055 119.958C37.8861 120.008 37.6398 119.698 37.5131 119.255C37.3864 118.811 37.4287 118.431 37.5976 118.382C37.7665 118.333 38.0128 118.671 38.1394 119.086Z" fill="#263238" stroke="#263238" stroke-miterlimit="10"/>
<path id="Vector_68" d="M36.8311 117.889C37.8163 117.608 38.2385 118.347 38.3582 119.029L38.5412 119.839L39.1534 122.97L40.0824 122.576" stroke="#263238" stroke-width="0.5" stroke-linecap="round" stroke-linejoin="round"/>
<path id="Vector_69" d="M40.8418 118.129C41.0558 117.894 41.3222 117.713 41.6194 117.6C41.9165 117.488 42.236 117.447 42.5519 117.481" stroke="#263238" stroke-width="0.5" stroke-linecap="round" stroke-linejoin="round"/>
<path id="Vector_70" d="M41.6581 116.179C41.2577 116.263 40.8903 116.461 40.6004 116.75C40.3106 117.038 40.1108 117.405 40.0254 117.805" stroke="#263238" stroke-width="0.5" stroke-linecap="round" stroke-linejoin="round"/>
<path id="Vector_71" d="M40.9199 123.59C40.9199 123.59 42.9608 123.181 43.1226 121.718" stroke="#263238" stroke-width="0.5" stroke-linecap="round" stroke-linejoin="round"/>
<path id="Vector_72" d="M58.2462 147.841L47.9434 144.969C47.9434 144.969 48.8512 127.376 50.4416 124.399C52.9188 119.775 58.598 121.858 59.6677 127.671C60.667 133.161 58.2462 147.841 58.2462 147.841Z" fill="#92E3A9" stroke="#263238" stroke-linecap="round" stroke-linejoin="round"/>
<path id="Vector_73" d="M48.1895 143.013C48.1895 143.013 53.8194 144.308 57.2466 145.434" stroke="#263238" stroke-width="0.5" stroke-linecap="round" stroke-linejoin="round"/>
<path id="Vector_74" d="M57.1055 121.324C57.1055 121.324 60.4553 121.584 62.6439 123.386" stroke="#92E3A9" stroke-width="0.5" stroke-linecap="round" stroke-linejoin="round"/>
<path id="Vector_75" d="M116.136 166.328C116.136 166.328 101.132 171.62 99.7596 173.063C98.3873 174.506 98.528 180.135 101.765 182.873C105.002 185.611 128.078 179.404 144.574 177.595C161.07 175.786 197.284 173.126 212.063 172.408C226.842 171.691 233.562 173.64 234.857 169.03C236.152 164.421 235.99 159.495 233.175 158.495C230.36 157.496 179.071 149.283 116.136 166.328Z" fill="#263238" stroke="#263238" stroke-width="0.75" stroke-linecap="round" stroke-linejoin="round"/>
<path id="Vector_76" d="M98.6895 176.138C98.6895 176.138 99.3932 182.24 103.144 183.176C106.895 184.112 151.47 175.667 177.741 174.731C204.012 173.795 227.003 173.091 227.003 173.091" stroke="white" stroke-width="0.5" stroke-linecap="round" stroke-linejoin="round"/>
<path id="Vector_77" d="M120.464 179.235C137.889 175.012 173.73 169.044 234.041 170.74" stroke="white" stroke-width="0.5" stroke-linecap="round" stroke-linejoin="round"/>
<path id="Vector_78" d="M106.178 182.95C106.178 182.95 110.182 181.979 116.269 180.318" stroke="white" stroke-width="0.5" stroke-linecap="round" stroke-linejoin="round"/>
<path id="Vector_79" d="M109.851 183.647C110.04 186.263 109.969 188.892 109.64 191.494" stroke="white" stroke-width="0.5" stroke-linecap="round" stroke-linejoin="round"/>
<path id="Vector_80" d="M109.211 71.1115C109.211 71.1115 105.854 75.0455 105.594 78.5712" stroke="#263238" stroke-width="0.75" stroke-linecap="round" stroke-linejoin="round"/>
<path id="Vector_81" d="M105.242 81.4144C105.242 81.4144 102.715 121.605 109.401 164.379" stroke="#263238" stroke-width="0.75" stroke-linecap="round" stroke-linejoin="round"/>
<path id="Vector_82" d="M106.037 127.854C106.037 127.854 100.583 129.754 100.513 132.218C100.33 138.84 101.027 152.971 102.469 154.343C103.912 155.716 108.395 152.084 108.395 152.084C108.395 152.084 114.729 152.633 115.432 151.212C116.136 149.79 113.497 129.783 113.103 128.037C112.709 126.292 106.037 127.854 106.037 127.854Z" fill="#92E3A9" stroke="#263238" stroke-linecap="round" stroke-linejoin="round"/>
<path id="Vector_83" d="M219.959 137.383C221.379 138.077 222.921 138.483 224.498 138.579C222.753 132.021 220.775 124.716 218.735 117.425C216.891 117.298 214.512 117.298 214.561 118.129C214.596 119.55 218.179 136.356 219.959 137.383Z" fill="#92E3A9" stroke="#263238" stroke-linecap="round" stroke-linejoin="round"/>
<path id="Vector_84" d="M105.256 129.923C105.256 129.923 105.495 142.591 106.431 147.517" stroke="#263238" stroke-width="0.75" stroke-linecap="round" stroke-linejoin="round"/>
<path id="Vector_85" d="M171.042 132.851C171.042 132.851 202.443 127.791 239.031 134.258" stroke="#263238" stroke-linecap="round" stroke-linejoin="round"/>
<path id="Vector_86" d="M266.638 152.689C268.798 153.337 270.923 154.02 272.971 154.751" stroke="#263238" stroke-linecap="round" stroke-linejoin="round"/>
<path id="Vector_87" d="M210.262 143.133C210.262 143.133 235.16 144.646 259.003 150.606" stroke="#263238" stroke-linecap="round" stroke-linejoin="round"/>
<path id="Vector_88" d="M134.482 201.114C154.984 197.981 175.812 197.61 196.412 200.009" stroke="#263238" stroke-linecap="round" stroke-linejoin="round"/>
<path id="Vector_89" d="M131.906 197.799C131.906 197.799 146.643 195.956 151.435 195.59" stroke="#263238" stroke-linecap="round" stroke-linejoin="round"/>
<path id="Vector_90" d="M230.6 61.1184C232.711 61.421 234.822 61.8221 236.736 62.2796" stroke="#263238" stroke-linecap="round" stroke-linejoin="round"/>
<path id="Vector_91" d="M200.261 60.4217C208.932 59.8092 217.637 59.868 226.299 60.5976" stroke="#263238" stroke-linecap="round" stroke-linejoin="round"/>
<path id="Vector_92" d="M86.7188 145.673C86.7188 145.673 107.747 135.715 138.169 132.949" stroke="#263238" stroke-linecap="round" stroke-linejoin="round"/>
<path id="Vector_93" d="M122.132 127.411C122.132 127.411 134.863 124.096 154.23 122.984" stroke="#263238" stroke-linecap="round" stroke-linejoin="round"/>
<path id="Vector_94" d="M86.374 197.722C88.9296 202.299 93.0536 205.798 97.9858 207.574" stroke="#263238" stroke-linecap="round" stroke-linejoin="round"/>
<path id="Vector_95" d="M85.6709 200.889C85.6709 200.889 88.8377 205.815 93.0602 207.926" stroke="#263238" stroke-linecap="round" stroke-linejoin="round"/>
<path id="Vector_96" d="M189.473 183.295C189.473 183.295 191.584 193.148 200.029 197.37" stroke="#263238" stroke-linecap="round" stroke-linejoin="round"/>
<path id="Vector_97" d="M190.528 192.092C192.202 194.543 194.514 196.49 197.214 197.722" stroke="#263238" stroke-linecap="round" stroke-linejoin="round"/>
<path id="Vector_98" d="M51.2998 211.065C51.2998 211.065 53.411 214.584 60.8003 214.584" stroke="#263238" stroke-linecap="round" stroke-linejoin="round"/>
<path id="Vector_99" d="M49.8926 213.176C52.5847 215.415 55.903 216.767 59.3931 217.047" stroke="#263238" stroke-linecap="round" stroke-linejoin="round"/>
</g>
</g>
<g id="freepik--Floor--inject-1--inject-16">
<path id="Vector_100" d="M145.026 204.492C126.336 205.509 107.783 208.284 89.6133 212.782L90.0496 213.437C90.0496 213.437 105.532 210.15 134.146 217.188C162.76 224.225 164.646 229.855 196.076 229.855C227.505 229.855 258.005 222.353 258.005 222.353L254.191 220.242C225.971 208.299 187.293 202.127 145.026 204.492Z" fill="#92E3A9"/>
<path id="Vector_101" opacity="0.5" d="M145.026 204.492C126.336 205.509 107.783 208.284 89.6133 212.782L90.0496 213.437C90.0496 213.437 105.532 210.15 134.146 217.188C162.76 224.225 164.646 229.855 196.076 229.855C227.505 229.855 258.005 222.353 258.005 222.353L254.191 220.242C225.971 208.299 187.293 202.127 145.026 204.492Z" fill="white"/>
<path id="Vector_102" d="M76.1719 220.594C76.1719 220.594 113.118 214.964 145.139 236.428" stroke="#263238" stroke-linecap="round" stroke-linejoin="round"/>
<path id="Vector_103" d="M114.878 228.687C114.878 228.687 130.008 233.261 139.157 243.113" stroke="#263238" stroke-linecap="round" stroke-linejoin="round"/>
<path id="Vector_104" d="M204.253 210.741C204.253 210.741 225.717 212.853 245.07 224.464" stroke="#263238" stroke-linecap="round" stroke-linejoin="round"/>
<path id="Vector_105" d="M271.179 228.926C275.044 231.291 278.723 233.947 282.185 236.871" stroke="#263238" stroke-linecap="round" stroke-linejoin="round"/>
<path id="Vector_106" d="M19.3867 245.527C45.0382 223.711 91.3867 207.525 145.026 204.492C193.985 201.712 238.145 210.481 266.774 226.308" stroke="#263238" stroke-linecap="round" stroke-linejoin="round"/>
<path id="Vector_107" d="M175.752 210.389C175.752 210.389 197.92 211.445 212.698 216.371" stroke="#263238" stroke-linecap="round" stroke-linejoin="round"/>
</g>
<g id="clouds">
<path id="Vector_108" d="M75.2417 43.3208C75.2417 43.3208 74.5379 33.588 60.2871 33.2362C46.0363 32.8843 49.8506 42.976 46.0293 45.4109C42.2079 47.8459 41.1594 44.0034 37.331 46.4524C33.5026 48.9015 35.2198 53.7573 32.1163 54.454C29.0128 55.1507 24.8114 51.3224 20.9901 53.7503C17.1688 56.1782 17.1617 58.2683 15.4235 58.2683C13.6852 58.2683 10.2087 56.8608 8.12566 58.2683C6.04258 59.6758 3.60059 61.3788 3.60059 61.3788H91.5685C91.5685 61.3788 92.61 58.2472 88.7535 56.1641C84.897 54.081 83.1869 55.8122 81.8005 54.0529C80.4142 52.2935 85.6711 47.8459 75.2417 43.3208Z" fill="#1362AA"/>
<path id="Vector_109" d="M127.509 6.07164C127.509 6.07164 127.087 0.216495 118.515 0.00537224C109.944 -0.205751 112.238 5.86755 109.937 7.33134C107.635 8.79513 107.009 6.49388 104.708 7.95767C102.407 9.42146 103.455 12.349 101.569 12.7642C99.6831 13.1794 97.1778 10.8852 94.8766 12.349C92.5753 13.8128 92.5753 15.0655 91.5268 15.0655C90.4782 15.0655 88.3881 14.2351 87.1354 15.0655C85.8827 15.8959 84.4189 16.9515 84.4189 16.9515H137.34C137.34 16.9515 137.967 15.0655 135.666 13.8128C133.364 12.5602 132.323 13.6017 131.485 12.5602C130.648 11.5186 133.787 8.79513 127.509 6.07164Z" fill="#1362AA"/>
<path id="Vector_110" opacity="0.7" d="M75.2417 43.3208C75.2417 43.3208 74.5379 33.588 60.2871 33.2362C46.0363 32.8843 49.8506 42.976 46.0293 45.4109C42.2079 47.8459 41.1594 44.0034 37.331 46.4524C33.5026 48.9015 35.2198 53.7573 32.1163 54.454C29.0128 55.1507 24.8114 51.3224 20.9901 53.7503C17.1688 56.1782 17.1617 58.2683 15.4235 58.2683C13.6852 58.2683 10.2087 56.8608 8.12566 58.2683C6.04258 59.6758 3.60059 61.3788 3.60059 61.3788H91.5685C91.5685 61.3788 92.61 58.2472 88.7535 56.1641C84.897 54.081 83.1869 55.8122 81.8005 54.0529C80.4142 52.2935 85.6711 47.8459 75.2417 43.3208Z" fill="white"/>
<path id="Vector_111" opacity="0.8" d="M127.509 6.07164C127.509 6.07164 127.087 0.216495 118.515 0.00537224C109.944 -0.205751 112.238 5.86755 109.937 7.33134C107.635 8.79513 107.009 6.49388 104.708 7.95767C102.407 9.42146 103.455 12.349 101.569 12.7642C99.6831 13.1794 97.1778 10.8852 94.8766 12.349C92.5753 13.8128 92.5753 15.0655 91.5268 15.0655C90.4782 15.0655 88.3881 14.2351 87.1354 15.0655C85.8827 15.8959 84.4189 16.9515 84.4189 16.9515H137.34C137.34 16.9515 137.967 15.0655 135.666 13.8128C133.364 12.5602 132.323 13.6017 131.485 12.5602C130.648 11.5186 133.787 8.79513 127.509 6.07164Z" fill="white"/>
</g>
</g>
</svg>
