<svg width="242" height="200" viewBox="0 0 242 200" fill="none" xmlns="http://www.w3.org/2000/svg">
<g id="illustration">
<g id="phone">
<g id="freepik--Character--inject-5">
<path id="Vector" d="M173.096 39.0272L117.276 6.74173C113.36 4.47647 108.348 5.81506 106.083 9.73156L28.7778 143.388C26.5126 147.304 27.8512 152.315 31.7677 154.581L87.5874 186.866C91.5039 189.131 96.5153 187.793 98.7805 183.876L176.086 50.2203C178.351 46.3038 177.012 41.2925 173.096 39.0272Z" fill="#407BFF"/>
<path id="Vector_2" opacity="0.7" d="M173.096 39.0272L117.276 6.74173C113.36 4.47647 108.348 5.81506 106.083 9.73156L28.7778 143.388C26.5126 147.304 27.8512 152.315 31.7677 154.581L87.5874 186.866C91.5039 189.131 96.5153 187.793 98.7805 183.876L176.086 50.2203C178.351 46.3038 177.012 41.2925 173.096 39.0272Z" fill="white"/>
<path id="Vector_3" d="M175.114 39.858L119.295 7.57248C115.378 5.30722 110.367 6.64581 108.102 10.5623L30.7964 144.218C28.5312 148.135 29.8698 153.146 33.7863 155.411L89.606 187.697C93.5225 189.962 98.5338 188.624 100.799 184.707L178.104 51.0511C180.369 47.1346 179.031 42.1232 175.114 39.858Z" fill="#407BFF"/>
<path id="Vector_4" opacity="0.2" d="M175.114 39.858L119.295 7.57248C115.378 5.30722 110.367 6.64581 108.102 10.5623L30.7964 144.218C28.5312 148.135 29.8698 153.146 33.7863 155.411L89.606 187.697C93.5225 189.962 98.5338 188.624 100.799 184.707L178.104 51.0511C180.369 47.1346 179.031 42.1232 175.114 39.858Z" fill="black"/>
<path id="Vector_5" d="M68.193 166.619C67.8325 167.245 67.2945 167.749 66.6471 168.069C65.9997 168.388 65.2721 168.509 64.5563 168.414C63.8405 168.32 63.1688 168.016 62.6262 167.539C62.0836 167.063 61.6945 166.437 61.5082 165.739C61.3219 165.042 61.3468 164.305 61.5796 163.621C61.8125 162.938 62.2429 162.339 62.8163 161.9C63.3898 161.462 64.0804 161.203 64.8009 161.157C65.5214 161.111 66.2393 161.28 66.8637 161.643C67.6999 162.127 68.3097 162.923 68.559 163.856C68.8083 164.789 68.6766 165.783 68.193 166.619Z" fill="#407BFF"/>
<path id="Vector_6" opacity="0.4" d="M68.193 166.619C67.8325 167.245 67.2945 167.749 66.6471 168.069C65.9997 168.388 65.2721 168.509 64.5563 168.414C63.8405 168.32 63.1688 168.016 62.6262 167.539C62.0836 167.063 61.6945 166.437 61.5082 165.739C61.3219 165.042 61.3468 164.305 61.5796 163.621C61.8125 162.938 62.2429 162.339 62.8163 161.9C63.3898 161.462 64.0804 161.203 64.8009 161.157C65.5214 161.111 66.2393 161.28 66.8637 161.643C67.6999 162.127 68.3097 162.923 68.559 163.856C68.8083 164.789 68.6766 165.783 68.193 166.619Z" fill="black"/>
<path id="Vector_7" d="M102.575 180.336L32.9211 140.049L106.402 13.0047L176.541 53.572L102.575 180.336Z" fill="#407BFF"/>
<path id="Vector_8" opacity="0.8" d="M103.23 180.625L32.8743 140.041L106.358 12.9919L176.646 53.5481L103.23 180.625Z" fill="white"/>
<path id="Vector_9" opacity="0.33" d="M99.8698 12.0677L99.3848 11.7872L95.6759 18.1996L96.161 18.4801L99.8698 12.0677Z" fill="#407BFF"/>
<path id="Vector_10" opacity="0.33" d="M95.1315 20.2603L94.6465 19.9797L93.485 21.9878L93.9701 22.2684L95.1315 20.2603Z" fill="#407BFF"/>
<path id="Vector_11" d="M158.434 50.1162L110.118 22.1707C107.455 20.6306 104.048 21.5407 102.508 24.2035L85.8268 53.0447C84.2867 55.7075 85.1968 59.1146 87.8596 60.6547L136.176 88.6002C138.838 90.1403 142.246 89.2302 143.786 86.5674L160.467 57.7262C162.007 55.0634 161.097 51.6563 158.434 50.1162Z" fill="white"/>
<path id="Vector_12" opacity="0.27" d="M108.084 40.7613C112.145 41.2854 115.861 38.4185 116.386 34.3579C116.91 30.2973 114.043 26.5807 109.982 26.0566C105.922 25.5325 102.205 28.3994 101.681 32.46C101.157 36.5205 104.024 40.2372 108.084 40.7613Z" fill="#407BFF"/>
<path id="Vector_13" d="M114.332 36.4734C113.827 37.3572 113.104 38.0977 112.233 38.6253C110.961 39.4046 109.449 39.6923 107.979 39.4345C106.51 39.1767 105.186 38.391 104.255 37.2253C103.324 36.0595 102.852 34.594 102.925 33.1041C102.999 31.6143 103.615 30.2028 104.657 29.135C105.698 28.0672 107.094 27.4167 108.582 27.3057C110.069 27.1947 111.546 27.6309 112.735 28.5323C113.923 29.4337 114.741 30.7382 115.036 32.2006C115.33 33.663 115.08 35.1825 114.332 36.4734V36.4734Z" fill="white"/>
<path id="Vector_14" opacity="0.27" d="M112.238 38.6206C111.298 39.1962 110.221 39.5074 109.119 39.5214C108.017 39.5353 106.932 39.2514 105.978 38.6997C105.024 38.148 104.237 37.3489 103.699 36.3869C103.162 35.4249 102.894 34.3356 102.925 33.2341C104.836 33.1111 106.74 33.5571 108.398 34.5158C110.055 35.4745 111.392 36.9029 112.238 38.6206V38.6206Z" fill="#407BFF"/>
<path id="Vector_15" opacity="0.27" d="M108.725 33.9484C110.027 34.7014 111.693 34.2564 112.446 32.9545C113.199 31.6526 112.754 29.9867 111.452 29.2337C110.15 28.4807 108.484 28.9256 107.731 30.2276C106.978 31.5295 107.423 33.1954 108.725 33.9484Z" fill="#407BFF"/>
<path id="Vector_16" d="M135.385 92.8878L84.5369 63.4779C82.5733 62.3422 80.0608 63.0133 78.925 64.9769L75.247 71.336C74.1113 73.2996 74.7824 75.8121 76.7461 76.9478L127.594 106.358C129.558 107.493 132.07 106.822 133.206 104.859L136.884 98.4997C138.02 96.5361 137.348 94.0235 135.385 92.8878Z" fill="white"/>
<path id="Vector_17" d="M135.464 22.2657C135.592 22.0458 135.783 21.8689 136.012 21.7573C136.241 21.6458 136.498 21.6045 136.75 21.6387C137.003 21.673 137.239 21.7813 137.43 21.9498C137.621 22.1184 137.757 22.3397 137.823 22.5859C137.888 22.8321 137.879 23.0921 137.796 23.333C137.714 23.574 137.562 23.7851 137.359 23.9397C137.157 24.0944 136.914 24.1856 136.659 24.202C136.405 24.2183 136.152 24.1589 135.932 24.0314C135.785 23.9465 135.656 23.8333 135.553 23.6985C135.45 23.5636 135.374 23.4098 135.331 23.2457C135.288 23.0816 135.277 22.9106 135.3 22.7424C135.323 22.5743 135.378 22.4123 135.464 22.2657Z" fill="#407BFF"/>
<path id="Vector_18" d="M141.081 24.0258L150.351 29.3871C150.646 29.5592 150.86 29.8409 150.948 30.1707C151.037 30.5005 150.991 30.8517 150.821 31.1479C150.65 31.4443 150.368 31.6606 150.037 31.7497C149.707 31.8388 149.355 31.7933 149.057 31.6231L139.788 26.2619C139.493 26.0892 139.277 25.8065 139.19 25.4755C139.102 25.1446 139.149 24.7925 139.321 24.4961C139.493 24.2014 139.774 23.9866 140.104 23.8985C140.434 23.8104 140.785 23.8562 141.081 24.0258Z" fill="#407BFF"/>
<path id="Vector_19" opacity="0.4" d="M135.464 22.2657C135.592 22.0458 135.783 21.8689 136.012 21.7573C136.241 21.6458 136.498 21.6045 136.75 21.6387C137.003 21.673 137.239 21.7813 137.43 21.9498C137.621 22.1184 137.757 22.3397 137.823 22.5859C137.888 22.8321 137.879 23.0921 137.796 23.333C137.714 23.574 137.562 23.7851 137.359 23.9397C137.157 24.0944 136.914 24.1856 136.659 24.202C136.405 24.2183 136.152 24.1589 135.932 24.0314C135.785 23.9465 135.656 23.8333 135.553 23.6985C135.45 23.5636 135.374 23.4098 135.331 23.2457C135.288 23.0816 135.277 22.9106 135.3 22.7424C135.323 22.5743 135.378 22.4123 135.464 22.2657Z" fill="black"/>
<path id="Vector_20" opacity="0.4" d="M141.081 24.0258L150.351 29.3871C150.646 29.5592 150.86 29.8409 150.948 30.1707C151.037 30.5005 150.991 30.8517 150.821 31.1479C150.65 31.4443 150.368 31.6606 150.037 31.7497C149.707 31.8388 149.355 31.7933 149.057 31.6231L139.788 26.2619C139.493 26.0892 139.277 25.8065 139.19 25.4755C139.102 25.1446 139.149 24.7925 139.321 24.4961C139.493 24.2014 139.774 23.9866 140.104 23.8985C140.434 23.8104 140.785 23.8562 141.081 24.0258Z" fill="black"/>
<path id="Vector_21" d="M167.632 69.3789L163.01 66.7053C161.935 66.084 160.561 66.4512 159.939 67.5254L151.795 81.6064C151.174 82.6807 151.541 84.0552 152.615 84.6765L157.238 87.3501C158.312 87.9714 159.686 87.6043 160.308 86.5301L168.452 72.449C169.073 71.3748 168.706 70.0003 167.632 69.3789Z" fill="#407BFF"/>
<path id="Vector_22" opacity="0.8" d="M167.632 69.3789L163.01 66.7053C161.935 66.084 160.561 66.4512 159.939 67.5254L151.795 81.6064C151.174 82.6807 151.541 84.0552 152.615 84.6765L157.238 87.3501C158.312 87.9714 159.686 87.6043 160.308 86.5301L168.452 72.449C169.073 71.3748 168.706 70.0003 167.632 69.3789Z" fill="white"/>
<path id="Vector_23" d="M154.724 92.8159L149.131 89.5812C148.325 89.1148 147.293 89.3904 146.826 90.1967L142.652 97.4143C142.186 98.2206 142.461 99.2524 143.267 99.7188L148.86 102.953C149.666 103.42 150.698 103.144 151.165 102.338L155.339 95.1204C155.805 94.314 155.53 93.2823 154.724 92.8159Z" fill="#407BFF"/>
<path id="Vector_24" opacity="0.8" d="M154.724 92.8159L149.131 89.5812C148.325 89.1148 147.293 89.3904 146.826 90.1967L142.652 97.4143C142.186 98.2206 142.461 99.2524 143.267 99.7188L148.86 102.953C149.666 103.42 150.698 103.144 151.165 102.338L155.339 95.1204C155.805 94.314 155.53 93.2823 154.724 92.8159Z" fill="white"/>
</g>
</g>
<g id="email-icons">
<g id="email-icon-2">
<path id="Vector_25" opacity="0.6" d="M150.076 112.509L144.952 141.252C144.814 142.002 144.386 142.668 143.761 143.104C143.135 143.54 142.363 143.71 141.612 143.579L86.91 133.836C86.1608 133.7 85.4959 133.273 85.0598 132.649C84.6237 132.024 84.4517 131.253 84.5814 130.502L89.7091 101.752C89.8444 101.003 90.2719 100.337 90.8974 99.9018C91.523 99.4666 92.2956 99.2976 93.0455 99.4318L147.751 109.169C148.501 109.306 149.166 109.734 149.601 110.359C150.037 110.985 150.207 111.758 150.076 112.509V112.509Z" fill="#407BFF"/>
<path id="Vector_26" d="M149.865 110.479L124.597 124.34C122.256 125.626 119.548 126.074 116.922 125.608C114.297 125.143 111.912 123.792 110.162 121.781L91.2668 100.089C91.8788 99.686 92.6206 99.531 93.3412 99.6557L148.083 109.351C148.799 109.488 149.435 109.891 149.865 110.479Z" fill="#407BFF"/>
<path id="Vector_27" opacity="0.5" d="M149.865 110.479L124.597 124.34C122.256 125.626 119.548 126.074 116.922 125.608C114.297 125.143 111.912 123.792 110.162 121.781L91.2668 100.089C91.8788 99.686 92.6206 99.531 93.3412 99.6557L148.083 109.351C148.799 109.488 149.435 109.891 149.865 110.479Z" fill="white"/>
</g>
<g id="email-icon-1">
<path id="Vector_28" opacity="0.6" d="M111.919 145.247L99.2568 166.187C98.9245 166.732 98.3891 167.123 97.7671 167.275C97.1452 167.427 96.4871 167.327 95.9363 166.998L55.8472 142.763C55.5753 142.599 55.3384 142.383 55.1499 142.127C54.9614 141.872 54.8251 141.582 54.7487 141.274C54.6723 140.967 54.6574 140.647 54.7047 140.335C54.752 140.022 54.8607 139.722 55.0246 139.452L67.6812 118.508C67.8541 118.225 68.0829 117.981 68.3535 117.79C68.6241 117.599 68.931 117.465 69.2557 117.396C69.8539 117.273 70.4775 117.381 71.0017 117.697L111.094 141.925C111.643 142.26 112.039 142.797 112.193 143.419C112.348 144.042 112.249 144.699 111.919 145.247V145.247Z" fill="#407BFF"/>
<path id="Vector_29" d="M112.817 143.694L88.5656 146.524C86.3173 146.785 84.0221 146.282 82.0593 145.097C80.0965 143.913 78.5834 142.118 77.7699 140.008L69.044 117.267C69.6483 117.152 70.2814 117.267 70.8163 117.59L111.738 142.288C112.259 142.614 112.644 143.115 112.817 143.694V143.694Z" fill="#407BFF"/>
<path id="Vector_30" opacity="0.5" d="M112.817 143.694L88.5656 146.524C86.3173 146.785 84.0221 146.282 82.0593 145.097C80.0965 143.913 78.5834 142.118 77.7699 140.008L69.044 117.267C69.6483 117.152 70.2814 117.267 70.8163 117.59L111.738 142.288C112.259 142.614 112.644 143.115 112.817 143.694V143.694Z" fill="white"/>
</g>
</g>
<g id="freepik--bubble-speech--inject-5">
<path id="Vector_31" d="M236.164 70.9174H205.949C204.653 70.9174 203.41 71.4323 202.494 72.3487C201.577 73.2651 201.062 74.508 201.062 75.804V85.17C201.062 86.466 201.577 87.7089 202.494 88.6253C203.41 89.5417 204.653 90.0566 205.949 90.0566H208.474V94.8617L213.279 90.0566H236.164C237.46 90.0566 238.703 89.5417 239.62 88.6253C240.536 87.7089 241.051 86.466 241.051 85.17V75.804C241.051 74.508 240.536 73.2651 239.62 72.3487C238.703 71.4323 237.46 70.9174 236.164 70.9174Z" fill="#407BFF"/>
<path id="Vector_32" opacity="0.3" d="M236.164 70.9174H205.949C204.653 70.9174 203.41 71.4323 202.494 72.3487C201.577 73.2651 201.062 74.508 201.062 75.804V85.17C201.062 86.466 201.577 87.7089 202.494 88.6253C203.41 89.5417 204.653 90.0566 205.949 90.0566H208.474V94.8617L213.279 90.0566H236.164C237.46 90.0566 238.703 89.5417 239.62 88.6253C240.536 87.7089 241.051 86.466 241.051 85.17V75.804C241.051 74.508 240.536 73.2651 239.62 72.3487C238.703 71.4323 237.46 70.9174 236.164 70.9174Z" fill="black"/>
<g id="Group" opacity="0.54">
<path id="Vector_33" opacity="0.54" d="M235.456 74.8106H206.649C206.031 74.8106 205.529 75.312 205.529 75.9304C205.529 76.5489 206.031 77.0503 206.649 77.0503H235.456C236.074 77.0503 236.575 76.5489 236.575 75.9304C236.575 75.312 236.074 74.8106 235.456 74.8106Z" fill="#F5F5F5"/>
</g>
<g id="Group_2" opacity="0.54">
<path id="Vector_34" opacity="0.54" d="M235.451 81.501H216.988C216.69 81.4999 216.405 81.3812 216.195 81.1706C215.984 80.9601 215.865 80.6749 215.864 80.3771V80.3771C215.865 80.0797 215.984 79.7949 216.195 79.585C216.406 79.3751 216.691 79.2573 216.988 79.2573H235.451C235.748 79.2573 236.033 79.3752 236.243 79.5853C236.453 79.7953 236.571 80.0801 236.571 80.3771C236.571 80.6745 236.453 80.9597 236.243 81.1704C236.034 81.3811 235.749 81.4999 235.451 81.501V81.501Z" fill="#F5F5F5"/>
</g>
<g id="Group_3" opacity="0.54">
<path id="Vector_35" opacity="0.54" d="M211.508 81.5008H206.65C206.353 81.4997 206.068 81.3808 205.858 81.1702C205.648 80.9595 205.53 80.6743 205.53 80.3769V80.3769C205.53 80.0799 205.648 79.7951 205.858 79.585C206.068 79.375 206.353 79.257 206.65 79.257H211.508C211.805 79.257 212.09 79.375 212.3 79.585C212.51 79.7951 212.628 80.0799 212.628 80.3769C212.628 80.6743 212.51 80.9595 212.3 81.1702C212.09 81.3808 211.806 81.4997 211.508 81.5008Z" fill="#F5F5F5"/>
</g>
<g id="Group_4" opacity="0.54">
<path id="Vector_36" opacity="0.54" d="M228.261 85.9477H206.65C206.353 85.9477 206.068 85.8297 205.858 85.6197C205.648 85.4097 205.53 85.1248 205.53 84.8278C205.53 84.5305 205.648 84.2452 205.858 84.0345C206.068 83.8239 206.353 83.705 206.65 83.7039H228.261C228.558 83.705 228.843 83.8239 229.053 84.0345C229.263 84.2452 229.381 84.5305 229.381 84.8278C229.381 85.1248 229.263 85.4097 229.053 85.6197C228.843 85.8297 228.558 85.9477 228.261 85.9477Z" fill="#F5F5F5"/>
</g>
</g>
<g id="freepik--Shadow--inject-5">
<path id="Vector_37" d="M64.0273 199.187C99.3886 199.187 128.055 197.513 128.055 195.449C128.055 193.384 99.3886 191.711 64.0273 191.711C28.666 191.711 0 193.384 0 195.449C0 197.513 28.666 199.187 64.0273 199.187Z" fill="#F5F5F5"/>
</g>
<g id="Group_5">
<path id="Vector_38" d="M152.167 104.137L148.969 102.172L152.167 100.464C152.167 100.464 153.807 102.291 153.505 103.707L152.167 104.137Z" fill="#E4897B"/>
<path id="Vector_39" d="M147.703 99.2898L150.321 98.4675L152.185 100.464L148.973 102.172L147.703 99.2898Z" fill="#E4897B"/>
<path id="Vector_40" d="M171.267 105.073C170.404 105.763 169.581 106.321 168.709 106.901C167.836 107.481 166.95 107.979 166.036 108.472C164.203 109.476 162.273 110.292 160.276 110.907C160.029 110.994 159.764 111.054 159.513 111.122C159.261 111.191 159.019 111.259 158.718 111.323C158.063 111.47 157.388 111.504 156.721 111.424C156.015 111.34 155.335 111.103 154.729 110.729C154.167 110.373 153.673 109.918 153.272 109.386C152.596 108.443 152.112 107.377 151.847 106.248C151.712 105.727 151.614 105.197 151.554 104.662C151.482 104.129 151.447 103.592 151.449 103.054L153.204 102.903C153.415 103.795 153.701 104.668 154.058 105.512C154.369 106.285 154.819 106.995 155.387 107.604C155.591 107.834 155.84 108.02 156.118 108.15C156.396 108.281 156.698 108.353 157.005 108.363C157.327 108.36 157.647 108.309 157.955 108.212C158.352 108.084 158.818 107.938 159.243 107.783C161.001 107.121 162.702 106.316 164.328 105.375C165.159 104.918 165.954 104.393 166.758 103.886C167.562 103.379 168.353 102.807 169.042 102.287L171.267 105.073Z" fill="#E4897B"/>
<path id="Vector_41" d="M150.522 192.372L153.88 192.696L157.375 184.706L154.017 184.377L150.522 192.372Z" fill="#E4897B"/>
<path id="Vector_42" d="M116.438 167.899L118.352 170.799L125.689 167.295L123.77 164.39L116.438 167.899Z" fill="#E4897B"/>
<path id="Vector_43" d="M157.374 184.706L155.574 188.826H152.07L154.012 184.377L157.374 184.706Z" fill="#CE6F64"/>
<path id="Vector_44" d="M123.769 164.395L125.683 167.295L121.905 169.1L119.986 166.199L123.769 164.395Z" fill="#CE6F64"/>
<path id="Vector_45" d="M188.28 110.592L188.39 110.839L188.531 111.127C188.623 111.318 188.728 111.515 188.833 111.711C189.048 112.1 189.29 112.493 189.518 112.867C189.999 113.634 190.529 114.37 191.103 115.069C191.688 115.762 192.312 116.421 192.972 117.043C193.315 117.344 193.648 117.655 194.004 117.956L194.539 118.377L194.662 118.477C194.604 118.459 194.545 118.447 194.484 118.441C194.352 118.427 194.218 118.448 194.096 118.5C194.021 118.522 193.955 118.565 193.904 118.623C193.872 118.669 193.954 118.596 194.023 118.477C194.204 118.144 194.346 117.792 194.448 117.426C194.698 116.539 194.895 115.638 195.037 114.727C195.192 113.785 195.32 112.821 195.421 111.858C195.521 110.894 195.626 109.911 195.718 108.952L197.481 108.925C197.591 109.943 197.636 110.935 197.677 111.949C197.719 112.963 197.7 113.968 197.677 114.996C197.637 116.053 197.517 117.105 197.317 118.144C197.201 118.742 197.015 119.325 196.764 119.88C196.582 120.273 196.331 120.63 196.024 120.935C195.786 121.159 195.506 121.334 195.201 121.451C194.846 121.584 194.464 121.631 194.087 121.588C193.781 121.548 193.484 121.455 193.21 121.314C193.1 121.259 192.993 121.198 192.89 121.131L192.716 121.017L192.049 120.56C191.592 120.259 191.19 119.925 190.775 119.592C189.953 118.906 189.182 118.16 188.468 117.363C187.759 116.558 187.107 115.704 186.517 114.809C186.224 114.352 185.955 113.895 185.694 113.438C185.567 113.196 185.443 112.959 185.324 112.707L185.151 112.319C185.091 112.182 185.046 112.072 184.973 111.885L188.28 110.592Z" fill="#E4897B"/>
<path id="Vector_46" d="M189.824 112.954L186.754 117.189L188.024 118.436L191.29 114.507L189.824 112.954Z" fill="#F5F5F5"/>
<path id="Vector_47" d="M185.01 107.367C188.468 108.28 190.853 113.132 190.853 113.132L186.86 118.728C186.86 118.728 182.054 112.684 182.177 110.775C182.296 108.774 182.926 106.805 185.01 107.367Z" fill="#407BFF"/>
<path id="Vector_48" opacity="0.7" d="M185.01 107.367C188.468 108.28 190.853 113.132 190.853 113.132L186.86 118.728C186.86 118.728 182.054 112.684 182.177 110.775C182.296 108.774 182.926 106.805 185.01 107.367Z" fill="white"/>
<path id="Vector_49" d="M187.993 109.153C187.993 109.153 189.131 110.496 175.964 126.431L163.78 119.295C166.887 114.457 168.682 111.401 172.268 99.8334C174.184 100.478 176.05 101.261 177.851 102.177C179.763 103.14 181.612 104.222 183.388 105.416C185.636 107.024 187.993 109.153 187.993 109.153Z" fill="#407BFF"/>
<path id="Vector_50" opacity="0.7" d="M187.993 109.153C187.993 109.153 189.131 110.496 175.964 126.431L163.78 119.295C166.887 114.457 168.682 111.401 172.268 99.8334C174.184 100.478 176.05 101.261 177.851 102.177C179.763 103.14 181.612 104.222 183.388 105.416C185.636 107.024 187.993 109.153 187.993 109.153Z" fill="white"/>
<path id="Vector_51" d="M186.412 107.778C185.553 107.065 184.452 106.184 183.388 105.416C181.621 104.207 179.771 103.124 177.851 102.177C176.773 101.615 175.667 101.122 174.726 100.747C174.575 100.998 174.699 101.766 175.16 102.89C176.914 105.151 180.989 108.481 184.388 109.144C185.969 108.915 186.462 108.413 186.412 107.778Z" fill="#F5F5F5"/>
<path id="Vector_52" d="M175.159 102.89C176.183 105.171 177.546 107.284 179.202 109.158C180.926 109.33 182.663 109.33 184.387 109.158C180.988 108.481 176.913 105.151 175.159 102.89Z" fill="#F5F5F5"/>
<path id="Vector_53" d="M175.977 126.431C175.977 126.431 176.174 157.734 170.623 166.77C164.849 176.167 157.32 187.63 157.32 187.63L150.801 187.314C150.801 187.314 158.403 170.356 161.272 162.485C165.223 151.635 167.051 121.205 167.051 121.205L175.977 126.431Z" fill="#407BFF"/>
<path id="Vector_54" opacity="0.4" d="M175.977 126.431C175.977 126.431 176.174 157.734 170.623 166.77C164.849 176.167 157.32 187.63 157.32 187.63L150.801 187.314C150.801 187.314 158.403 170.356 161.272 162.485C165.223 151.635 167.051 121.205 167.051 121.205L175.977 126.431Z" fill="black"/>
<path id="Vector_55" opacity="0.2" d="M169.043 127.303C167.987 128.199 167.079 129.255 166.352 130.433C166.146 132.763 165.895 135.38 165.607 138.121C167.595 135.422 169.166 130.684 169.043 127.303Z" fill="black"/>
<path id="Vector_56" d="M172.757 124.562C172.757 124.562 158.965 144.143 150.371 154.714C143.427 163.234 123.326 169.333 123.326 169.333L120.873 165.221C120.873 165.221 136.863 156.295 141.632 150.529C156.9 132.073 156.708 122.502 163.798 119.345L172.757 124.562Z" fill="#407BFF"/>
<path id="Vector_57" opacity="0.4" d="M172.757 124.562C172.757 124.562 158.965 144.143 150.371 154.714C143.427 163.234 123.326 169.333 123.326 169.333L120.873 165.221C120.873 165.221 136.863 156.295 141.632 150.529C156.9 132.073 156.708 122.502 163.798 119.345L172.757 124.562Z" fill="black"/>
<path id="Vector_58" d="M195.758 109.381L194.845 105.727L198.33 106.741C198.33 106.741 198.235 109.199 197.028 109.998L195.758 109.381Z" fill="#E4897B"/>
<path id="Vector_59" d="M195.956 102.794L198.404 104.032L198.345 106.759L194.859 105.745L195.956 102.794Z" fill="#E4897B"/>
<path id="Vector_60" d="M119.155 170.493L118.018 166.756C117.998 166.692 117.955 166.638 117.898 166.602C117.841 166.567 117.773 166.554 117.707 166.565L114.623 167.021C114.546 167.036 114.473 167.067 114.408 167.111C114.344 167.156 114.289 167.214 114.249 167.281C114.208 167.349 114.182 167.424 114.173 167.502C114.164 167.58 114.171 167.659 114.194 167.734C114.614 169.027 114.879 169.635 115.382 171.275C115.688 172.289 116.222 174.568 116.647 175.966C117.072 177.364 118.475 177.017 118.424 176.396C118.191 173.618 118.648 172.197 119.119 171.096C119.199 170.905 119.212 170.693 119.155 170.493V170.493Z" fill="#263238"/>
<path id="Vector_61" d="M154.328 191.659H150.216C150.142 191.659 150.07 191.684 150.012 191.73C149.953 191.775 149.911 191.839 149.892 191.91L148.978 195.177C148.956 195.253 148.952 195.335 148.967 195.413C148.982 195.492 149.015 195.566 149.064 195.629C149.113 195.692 149.177 195.743 149.249 195.777C149.321 195.811 149.401 195.828 149.481 195.825C150.924 195.803 151.628 195.72 153.442 195.72C154.556 195.72 157.444 195.834 158.983 195.834C160.523 195.834 160.81 194.309 160.185 194.172C157.384 193.555 155.776 192.701 154.913 191.887C154.754 191.74 154.545 191.658 154.328 191.659Z" fill="#263238"/>
<path id="Vector_62" d="M164.022 118.473L162.834 119.245C162.743 119.304 162.793 119.45 162.935 119.533L175.726 127.011C175.836 127.075 175.959 127.075 176.005 127.011L176.754 125.983C176.804 125.91 176.754 125.791 176.626 125.723L164.291 118.5C164.254 118.471 164.208 118.453 164.161 118.448C164.113 118.443 164.065 118.452 164.022 118.473Z" fill="#263238"/>
<path id="Vector_63" d="M165.616 103.876L167.197 108.655L168.682 107.764L167.293 103.027L165.616 103.876Z" fill="#F5F5F5"/>
<path id="Vector_64" d="M119.507 172.453C119.43 172.452 119.355 172.432 119.288 172.394C118.909 172.165 118.803 171.357 118.771 170.895C118.771 170.88 118.775 170.864 118.783 170.85C118.792 170.836 118.803 170.825 118.817 170.818C118.831 170.81 118.847 170.806 118.863 170.806C118.879 170.806 118.895 170.81 118.909 170.818C119.018 170.909 119.978 171.731 119.918 172.161C119.912 172.21 119.892 172.257 119.862 172.296C119.831 172.336 119.791 172.366 119.745 172.385C119.672 172.426 119.591 172.45 119.507 172.453V172.453ZM118.954 171.083C119.014 171.699 119.164 172.129 119.37 172.252C119.417 172.277 119.47 172.29 119.523 172.29C119.576 172.29 119.629 172.277 119.676 172.252C119.74 172.22 119.754 172.184 119.754 172.152C119.786 171.919 119.329 171.421 118.954 171.083Z" fill="#407BFF"/>
<path id="Vector_65" d="M120.083 171.462C119.614 171.422 119.167 171.244 118.799 170.95C118.792 170.939 118.788 170.925 118.788 170.911C118.788 170.898 118.792 170.884 118.799 170.873C118.803 170.859 118.809 170.846 118.819 170.836C118.828 170.825 118.841 170.817 118.854 170.813C118.895 170.813 119.855 170.512 120.284 170.777C120.338 170.809 120.385 170.852 120.42 170.904C120.456 170.957 120.48 171.016 120.49 171.078C120.508 171.141 120.505 171.208 120.48 171.269C120.455 171.33 120.41 171.38 120.353 171.412C120.268 171.45 120.176 171.467 120.083 171.462ZM119.032 170.927C119.384 171.169 120.037 171.384 120.252 171.265C120.284 171.265 120.325 171.211 120.307 171.106C120.3 171.066 120.285 171.029 120.262 170.997C120.239 170.964 120.209 170.938 120.174 170.918C119.802 170.803 119.403 170.806 119.032 170.927V170.927Z" fill="#407BFF"/>
<path id="Vector_66" d="M156.155 192.34C155.775 192.332 155.397 192.285 155.027 192.198C155.01 192.194 154.995 192.184 154.984 192.171C154.972 192.158 154.965 192.142 154.963 192.125C154.963 192.108 154.967 192.091 154.976 192.077C154.985 192.062 154.998 192.05 155.013 192.043C155.287 191.91 156.694 191.275 157.069 191.526C157.105 191.552 157.133 191.586 157.151 191.627C157.169 191.667 157.175 191.711 157.169 191.755C157.168 191.832 157.148 191.907 157.112 191.975C157.077 192.043 157.026 192.102 156.964 192.148C156.721 192.294 156.438 192.361 156.155 192.34V192.34ZM155.315 192.088C155.772 192.171 156.539 192.262 156.863 192.015C156.907 191.984 156.943 191.943 156.968 191.896C156.992 191.848 157.005 191.795 157.005 191.741C157.008 191.727 157.007 191.712 157.002 191.699C156.997 191.685 156.989 191.673 156.978 191.664C156.772 191.526 155.927 191.819 155.315 192.088Z" fill="#407BFF"/>
<path id="Vector_67" d="M155.045 192.198C155.029 192.204 155.011 192.204 154.995 192.198C154.982 192.189 154.973 192.176 154.968 192.161C154.963 192.147 154.963 192.131 154.967 192.116C154.967 192.052 155.324 190.558 156.146 190.663C156.361 190.686 156.416 190.795 156.429 190.878C156.484 191.271 155.543 192.02 155.059 192.212L155.045 192.198ZM156.073 190.805C155.58 190.805 155.283 191.604 155.159 191.965C155.616 191.705 156.283 191.111 156.251 190.882C156.251 190.846 156.201 190.818 156.114 190.809L156.073 190.805Z" fill="#407BFF"/>
<path id="Vector_68" d="M164.871 120.825L164.542 120.633C164.478 120.592 164.446 120.528 164.474 120.492L165.46 119.162C165.488 119.126 165.566 119.126 165.63 119.162L165.963 119.359C166.027 119.395 166.059 119.459 166.032 119.496L165.045 120.825C165.017 120.862 164.94 120.862 164.871 120.825Z" fill="#407BFF"/>
<path id="Vector_69" d="M174.716 126.586L174.387 126.39C174.323 126.353 174.291 126.289 174.318 126.253L175.305 124.923C175.333 124.887 175.41 124.887 175.474 124.923L175.808 125.115C175.872 125.156 175.904 125.22 175.872 125.257L174.89 126.586C174.862 126.623 174.784 126.623 174.716 126.586Z" fill="#407BFF"/>
<path id="Vector_70" d="M169.797 123.703L169.463 123.512C169.399 123.475 169.367 123.411 169.399 123.37L170.381 122.045C170.413 122.004 170.487 122.004 170.555 122.045L170.884 122.237C170.953 122.274 170.98 122.338 170.953 122.379L169.966 123.703C169.938 123.745 169.861 123.745 169.797 123.703Z" fill="#407BFF"/>
<path id="Vector_71" opacity="0.4" d="M164.871 120.825L164.542 120.633C164.478 120.592 164.446 120.528 164.474 120.492L165.46 119.162C165.488 119.126 165.566 119.126 165.63 119.162L165.963 119.359C166.027 119.395 166.059 119.459 166.032 119.496L165.045 120.825C165.017 120.862 164.94 120.862 164.871 120.825Z" fill="black"/>
<path id="Vector_72" opacity="0.4" d="M174.716 126.586L174.387 126.39C174.323 126.353 174.291 126.289 174.318 126.253L175.305 124.923C175.333 124.887 175.41 124.887 175.474 124.923L175.808 125.115C175.872 125.156 175.904 125.22 175.872 125.257L174.89 126.586C174.862 126.623 174.784 126.623 174.716 126.586Z" fill="black"/>
<path id="Vector_73" opacity="0.4" d="M169.797 123.703L169.463 123.512C169.399 123.475 169.367 123.411 169.399 123.37L170.381 122.045C170.413 122.004 170.487 122.004 170.555 122.045L170.884 122.237C170.953 122.274 170.98 122.338 170.953 122.379L169.966 123.703C169.938 123.745 169.861 123.745 169.797 123.703Z" fill="black"/>
<path id="Vector_74" d="M178.938 103.091C178.938 100.35 178.024 89.5636 182.519 88.6499C183.94 87.1514 190.98 86.9961 192.058 90.8062C193.484 95.8086 191.373 108.015 191.373 108.015L178.938 103.091Z" fill="#263238"/>
<path id="Vector_75" d="M192.31 108.043C192.295 108.041 192.28 108.037 192.267 108.029C192.254 108.022 192.242 108.012 192.233 108C192.223 107.988 192.216 107.974 192.212 107.96C192.208 107.945 192.207 107.93 192.209 107.915C192.209 107.792 193.694 95.5802 192.054 90.7468C191.597 89.422 190.327 88.4946 188.445 88.1291C185.996 87.6494 183.346 88.2479 182.611 89.0976C182.59 89.1185 182.561 89.1303 182.531 89.1303C182.501 89.1303 182.472 89.1185 182.451 89.0976C182.43 89.0755 182.418 89.046 182.418 89.0154C182.418 88.9847 182.43 88.9553 182.451 88.9332C183.31 87.9372 186.193 87.4393 188.504 87.8915C190.469 88.2707 191.812 89.2621 192.287 90.66C193.941 95.5528 192.465 107.805 192.451 107.929C192.451 107.946 192.447 107.963 192.439 107.979C192.432 107.994 192.421 108.008 192.407 108.019C192.394 108.03 192.378 108.037 192.361 108.042C192.344 108.046 192.327 108.046 192.31 108.043V108.043Z" fill="#263238"/>
<path id="Vector_76" d="M182.054 96.2701C181.364 98.2527 179.801 101.72 177.86 102.177C177.86 102.177 177.289 104.269 180.601 106.206C184.256 108.335 183.397 105.416 183.397 105.416C181.688 103.781 182.597 102.337 183.753 101.158L182.054 96.2701Z" fill="#E4897B"/>
<path id="Vector_77" d="M182.739 98.2619L183.744 101.154C183.473 101.427 183.223 101.722 183 102.035C182.305 101.483 181.561 100.135 181.944 99.2943C182.145 98.9053 182.415 98.5556 182.739 98.2619V98.2619Z" fill="#CE6F64"/>
<path id="Vector_78" d="M182.081 92.3183C181.136 95.6396 180.665 97.0238 181.72 99.2669C183.306 102.648 187.586 103.082 189.487 100.112C191.214 97.4396 192.465 92.46 189.743 90.0615C189.145 89.5305 188.423 89.1602 187.643 88.9856C186.863 88.811 186.052 88.8379 185.286 89.0637C184.519 89.2895 183.823 89.7068 183.262 90.2762C182.701 90.8456 182.295 91.5484 182.081 92.3183Z" fill="#E4897B"/>
<path id="Vector_79" d="M181.108 94.4107C183.47 95.2924 189.02 92.364 190.533 90.5686C190.734 87.8002 184.242 88.892 184.242 88.892C184.242 88.892 180.779 87.8276 181.108 94.4107Z" fill="#263238"/>
<path id="Vector_80" d="M180.545 95.0732C180.392 95.7222 180.502 96.4057 180.851 96.9736C181.308 97.7229 182.149 97.4305 182.514 96.6904C182.843 96.0143 182.994 94.8036 182.286 94.3148C182.128 94.2111 181.948 94.1483 181.76 94.1321C181.572 94.116 181.383 94.1469 181.21 94.2223C181.037 94.2976 180.886 94.4148 180.77 94.5634C180.654 94.712 180.577 94.8872 180.545 95.0732Z" fill="#E4897B"/>
<path id="Vector_81" d="M186.69 94.9635C186.594 95.2285 186.658 95.4934 186.832 95.5528C187.005 95.6122 187.22 95.4477 187.316 95.1828C187.412 94.9178 187.343 94.6574 187.17 94.5934C186.996 94.5295 186.782 94.6985 186.69 94.9635Z" fill="#263238"/>
<path id="Vector_82" d="M189.677 96.0188C189.586 96.2837 189.65 96.5441 189.823 96.6081C189.997 96.672 190.212 96.503 190.303 96.238C190.395 95.9731 190.331 95.7081 190.162 95.6487C189.993 95.5893 189.773 95.7538 189.677 96.0188Z" fill="#263238"/>
<path id="Vector_83" d="M190.081 95.635L190.78 95.6761C190.78 95.6761 190.277 96.0599 190.081 95.635Z" fill="#263238"/>
<path id="Vector_84" d="M188.728 96.1924C188.752 96.878 188.869 97.5573 189.075 98.2116C188.907 98.2611 188.729 98.2729 188.556 98.246C188.382 98.2192 188.216 98.1544 188.07 98.0563L188.728 96.1924Z" fill="#DE5753"/>
<path id="Vector_85" d="M186.8 98.7781H186.773C186.414 98.6616 186.088 98.4611 185.823 98.1933C185.558 97.9255 185.36 97.5982 185.247 97.2386C185.242 97.2168 185.247 97.1943 185.259 97.1756C185.271 97.1569 185.289 97.1435 185.311 97.1381C185.321 97.1354 185.332 97.135 185.343 97.1368C185.354 97.1386 185.364 97.1427 185.373 97.1487C185.382 97.1548 185.39 97.1626 185.395 97.1718C185.401 97.181 185.405 97.1913 185.407 97.202C185.517 97.5327 185.703 97.8331 185.95 98.0796C186.196 98.3262 186.497 98.5121 186.827 98.6228C186.846 98.6292 186.861 98.6419 186.871 98.6587C186.881 98.6754 186.885 98.6952 186.881 98.7144C186.878 98.7335 186.868 98.751 186.853 98.7635C186.838 98.776 186.819 98.7828 186.8 98.7827V98.7781Z" fill="#263238"/>
<path id="Vector_86" d="M186.558 93.9173C186.521 93.9178 186.485 93.9058 186.456 93.8832C186.426 93.8606 186.406 93.8287 186.397 93.7927C186.388 93.7568 186.391 93.7188 186.406 93.685C186.422 93.6512 186.448 93.6236 186.481 93.6066C186.708 93.4783 186.962 93.406 187.223 93.3956C187.483 93.3853 187.743 93.4373 187.979 93.5472C188.001 93.556 188.02 93.5691 188.036 93.5858C188.052 93.6024 188.064 93.6223 188.072 93.644C188.08 93.6657 188.083 93.6889 188.081 93.7119C188.079 93.7349 188.073 93.7573 188.062 93.7776C188.051 93.7979 188.036 93.8157 188.017 93.8298C187.999 93.8438 187.978 93.8539 187.956 93.8593C187.933 93.8648 187.91 93.8654 187.887 93.8612C187.864 93.857 187.843 93.8481 187.824 93.8351C187.635 93.7513 187.429 93.7135 187.222 93.7246C187.016 93.7357 186.815 93.7955 186.636 93.899C186.612 93.9116 186.585 93.9178 186.558 93.9173Z" fill="#263238"/>
<path id="Vector_87" d="M191.574 95.1279C191.538 95.1279 191.503 95.1157 191.475 95.0933C191.447 95.0709 191.427 95.0396 191.419 95.0046C191.373 94.8035 191.281 94.6161 191.149 94.4573C191.017 94.2986 190.85 94.1731 190.661 94.0909C190.619 94.0763 190.585 94.0463 190.566 94.0071C190.546 93.9679 190.542 93.9226 190.556 93.8808C190.562 93.86 190.573 93.8408 190.587 93.8243C190.602 93.8079 190.619 93.7945 190.639 93.7851C190.659 93.7757 190.68 93.7704 190.702 93.7696C190.724 93.7687 190.745 93.7724 190.766 93.7803C191.007 93.8795 191.222 94.0356 191.39 94.2352C191.559 94.4348 191.677 94.6721 191.734 94.9269C191.74 94.9479 191.741 94.9698 191.738 94.9913C191.735 95.0128 191.728 95.0335 191.717 95.0522C191.706 95.0709 191.691 95.0872 191.674 95.1002C191.656 95.1132 191.637 95.1226 191.616 95.1279H191.574Z" fill="#263238"/>
<path id="Vector_88" d="M187.079 94.5843L187.778 94.6254C187.778 94.6254 187.289 95.0046 187.079 94.5843Z" fill="#263238"/>
<path id="Vector_89" d="M172.277 99.8334C170.838 99.4908 166.411 102.862 166.411 102.862L168.289 108.852C168.289 108.852 172.917 106.289 173.346 104.402C173.771 102.447 173.917 100.226 172.277 99.8334Z" fill="#407BFF"/>
<path id="Vector_90" opacity="0.7" d="M172.277 99.8334C170.838 99.4908 166.411 102.862 166.411 102.862L168.289 108.852C168.289 108.852 172.917 106.289 173.346 104.402C173.771 102.447 173.917 100.226 172.277 99.8334Z" fill="white"/>
</g>
</g>
</svg>
