<svg width="496" height="432" viewBox="0 0 496 432" fill="none" xmlns="http://www.w3.org/2000/svg">
<g id="email-sent">
<g id="bg">
<path id="Vector" d="M396.406 357.808C396.406 357.808 434.253 347.936 463.869 298.576C497.064 243.243 482.823 146.695 438.609 99.7907C397.591 56.2922 306.781 48.6414 254.089 69.8662C204.297 89.931 166.055 138.156 135.625 144.733C105.195 151.31 67.3354 140.624 26.2062 185.862C-14.923 231.101 -5.87782 333.128 41.0142 366.853C87.9062 400.578 157.01 361.09 217.069 333.942C277.128 306.794 286.987 366.026 396.406 357.808Z" fill="#1362AA"/>
<g id="Group" opacity="0.7">
<path id="Vector_2" opacity="0.7" d="M396.406 357.808C396.406 357.808 434.253 347.936 463.869 298.576C497.064 243.243 482.823 146.695 438.609 99.7907C397.591 56.2922 306.781 48.6414 254.089 69.8662C204.297 89.931 166.055 138.156 135.625 144.733C105.195 151.31 67.3354 140.624 26.2062 185.862C-14.923 231.101 -5.87782 333.128 41.0142 366.853C87.9062 400.578 157.01 361.09 217.069 333.942C277.128 306.794 286.987 366.026 396.406 357.808Z" fill="white"/>
</g>
</g>
<g id="vehicle">
<g id="freepik--Character--inject-1--inject-16">
<path id="Vector_3" d="M383.868 258.175V258.1C373.799 254.756 358.349 255.892 356.054 257.261C353.614 258.895 351.517 260.991 349.884 263.431C344.46 271.126 340.572 279.795 338.432 288.963L228.915 299.143C224.88 290.431 218.796 282.62 212.688 277.906C210.942 276.445 208.931 275.334 206.765 274.636C205.811 274.522 204.845 274.555 203.902 274.735C199.928 263.222 194.301 252.116 187.267 251.412C172.459 249.931 146.619 254.892 139.573 269.256C132.527 283.62 130.318 319.48 130.318 319.48L125.382 324.416C121.782 317.402 116.775 311.206 110.673 306.214C108.933 304.744 106.92 303.633 104.75 302.944C103.516 302.599 98.5798 303.364 93.4093 305.054C93.1996 304.857 93.0021 304.659 92.78 304.474C87.844 300.34 77.7252 298.082 72.0735 308.62C66.4218 319.159 73.2088 339.113 76.5899 343.629C78.232 345.936 80.2912 347.916 82.6612 349.466C86.647 359.338 93.7672 371.925 104.725 372.505C108.478 372.707 112.231 372.099 115.729 370.724C119.228 369.349 122.389 367.237 125 364.533C132.108 357.129 132.873 346.726 130.195 336.546L131.343 334.868C131.343 334.868 133.897 338.508 143.683 337.039C146.519 336.747 149.209 335.632 151.42 333.831C156.01 345.542 163.426 357.277 175.211 359.029C180.269 359.803 185.434 359.478 190.355 358.077C195.276 356.676 199.837 354.232 203.729 350.91C205.991 348.956 207.964 346.692 209.59 344.184C216.189 343.82 222.405 340.972 226.99 336.213C231.092 331.838 233.438 326.105 233.579 320.109L248.153 318.406C257.302 322.487 267.283 324.355 277.288 323.86C286.868 323.245 295.937 319.319 302.943 312.754L336.15 309.916C336.705 322.787 341.332 334.596 352.192 341.099C356.349 343.581 360.995 345.132 365.81 345.645C370.624 346.158 375.493 345.622 380.08 344.073C395.394 338.94 399.022 316.185 400.009 302.352C401.539 280.14 394.456 261.321 383.868 258.175Z" fill="#263238" stroke="#263238" stroke-width="0.75" stroke-linecap="round" stroke-linejoin="round"/>
<path id="Vector_4" d="M181.123 351.884C179.85 353.512 178.226 354.833 176.372 355.747" stroke="white" stroke-width="0.5" stroke-linecap="round" stroke-linejoin="round"/>
<path id="Vector_5" d="M187.108 322.639C187.108 322.639 188.576 338.681 183.109 348.861" stroke="white" stroke-width="0.5" stroke-linecap="round" stroke-linejoin="round"/>
<path id="Vector_6" d="M191.439 340.359C190.044 346.529 187.268 352.514 181.888 355.167" stroke="white" stroke-width="0.5" stroke-linecap="round" stroke-linejoin="round"/>
<path id="Vector_7" d="M198.139 321.417C198.139 321.417 200.607 348.084 187.416 354.525" stroke="white" stroke-width="0.5" stroke-linecap="round" stroke-linejoin="round"/>
<path id="Vector_8" d="M203.667 320.8C203.667 320.8 206.135 347.479 192.932 353.908" stroke="white" stroke-width="0.5" stroke-linecap="round" stroke-linejoin="round"/>
<path id="Vector_9" d="M370.147 339.495C368.728 341.286 366.966 342.776 364.964 343.876" stroke="white" stroke-width="0.5" stroke-linecap="round" stroke-linejoin="round"/>
<path id="Vector_10" d="M380.068 306.19C380.068 306.19 379.279 324.44 372.504 336.052" stroke="white" stroke-width="0.5" stroke-linecap="round" stroke-linejoin="round"/>
<path id="Vector_11" d="M381.832 326.402C379.611 333.424 376.057 340.236 370.442 343.197" stroke="white" stroke-width="0.5" stroke-linecap="round" stroke-linejoin="round"/>
<path id="Vector_12" d="M391.026 304.832C391.026 304.832 389.706 335.238 375.922 342.518" stroke="white" stroke-width="0.5" stroke-linecap="round" stroke-linejoin="round"/>
<path id="Vector_13" d="M396.53 304.166C396.53 304.166 395.21 334.559 381.426 341.852" stroke="white" stroke-width="0.5" stroke-linecap="round" stroke-linejoin="round"/>
<path id="Vector_14" d="M108.205 368.383C107.155 369.992 105.77 371.356 104.146 372.381" stroke="white" stroke-width="0.5" stroke-linecap="round" stroke-linejoin="round"/>
<path id="Vector_15" d="M110.155 342.432C110.155 342.432 113.635 356.006 109.711 365.496" stroke="white" stroke-width="0.5" stroke-linecap="round" stroke-linejoin="round"/>
<path id="Vector_16" d="M116.609 357.006C116.054 362.497 114.141 368.025 109.365 371.061" stroke="white" stroke-width="0.5" stroke-linecap="round" stroke-linejoin="round"/>
<path id="Vector_17" d="M120.57 339.791C120.57 339.791 126.37 362.312 114.573 369.728" stroke="white" stroke-width="0.5" stroke-linecap="round" stroke-linejoin="round"/>
<path id="Vector_18" d="M125.778 338.459C125.778 338.459 131.59 360.979 119.78 368.408" stroke="white" stroke-width="0.5" stroke-linecap="round" stroke-linejoin="round"/>
<path id="Vector_19" d="M168.314 313.495C171.25 330.289 169.412 344.653 164.229 345.579C159.046 346.504 152.444 333.597 149.507 316.802C146.57 300.007 148.409 285.643 153.604 284.718C158.799 283.792 165.377 296.688 168.314 313.495Z" fill="#92E3A9" stroke="#263238" stroke-linecap="round" stroke-linejoin="round"/>
<path id="Vector_20" d="M165.698 313.853C166.512 320.294 165.759 325.687 163.995 325.909C162.23 326.131 160.157 321.096 159.343 314.655C158.528 308.213 159.343 302.808 161.045 302.586C162.748 302.364 164.883 307.411 165.698 313.853Z" fill="#DBF4FF" stroke="#263238" stroke-linecap="round" stroke-linejoin="round"/>
<path id="Vector_21" d="M153.32 298.452C153.495 296.29 153.838 294.145 154.345 292.035" stroke="#263238" stroke-width="0.75" stroke-linecap="round" stroke-linejoin="round"/>
<path id="Vector_22" d="M161.502 339.52C158.087 332.682 155.645 325.401 154.246 317.888C153.317 312.573 152.94 307.176 153.123 301.784" stroke="#263238" stroke-width="0.75" stroke-linecap="round" stroke-linejoin="round"/>
<path id="Vector_23" d="M95.6904 363.408C99.4208 362.374 99.7314 351.745 96.3842 339.667C93.037 327.589 87.2994 318.636 83.569 319.67C79.8386 320.704 79.5279 331.333 82.8751 343.411C86.2224 355.488 91.9599 364.441 95.6904 363.408Z" fill="#92E3A9" stroke="#263238" stroke-linecap="round" stroke-linejoin="round"/>
<path id="Vector_24" d="M95.162 340.149C96.3343 344.74 96.2726 348.713 95.0139 349.034C93.7552 349.355 91.8055 345.887 90.6332 341.309C89.4609 336.731 89.5226 332.733 90.7813 332.424C92.04 332.116 93.9897 335.559 95.162 340.149Z" stroke="#263238" stroke-width="0.75" stroke-linecap="round" stroke-linejoin="round"/>
<path id="Vector_25" d="M84.821 330.117C84.7522 328.535 84.8058 326.951 84.9814 325.378" stroke="#263238" stroke-width="0.75" stroke-linecap="round" stroke-linejoin="round"/>
<path id="Vector_26" d="M94.4335 359.103C91.3478 354.461 88.9263 349.411 87.2393 344.098C86.0862 340.337 85.3253 336.466 84.9688 332.548" stroke="#263238" stroke-width="0.75" stroke-linecap="round" stroke-linejoin="round"/>
<path id="Vector_27" d="M360.213 133.541C347.206 106.701 341.592 104.369 332.941 103.925C324.291 103.48 303.868 100.938 281.113 104.579C281.113 104.579 217.636 103.468 168.523 133.22C117.251 164.279 92.2991 191.563 88.8069 205.705C85.3147 219.847 73.3942 256.694 67.7425 277.82C62.0908 298.946 58.2407 317.555 65.4473 334.658C69.8033 344.999 74.4431 348.108 80.4033 348.059C79.4915 346.423 78.6876 344.729 77.997 342.987C72.0738 328.315 72.7896 307.325 79.5519 305.967C86.3142 304.61 90.3494 318.665 94.4339 333.992C95.2447 337.37 96.3429 340.672 97.7164 343.864C107.823 340.05 124.013 331.524 145.534 322.663C143.491 309.203 143.445 295.514 145.398 282.04C148.582 260.976 162.045 256.324 167.906 269.145C172.756 279.708 174.558 303.351 175.039 311.323C183.677 308.349 190.908 306.387 195.363 306.115C195.363 306.115 269.008 289.481 323.292 288.148C377.575 286.816 404.736 285.52 404.736 285.52C404.736 285.52 373.219 160.331 360.213 133.541Z" fill="white"/>
<g id="Group_2">
<path id="Vector_28" d="M186.663 263.036C186.663 263.036 179.197 273.254 170.115 275.438C173.324 287.211 174.644 304.635 175.051 311.224C182.764 308.571 189.316 306.708 193.808 306.165C194.462 302.315 194.857 299.859 194.857 299.859L186.663 263.036Z" fill="#92E3A9"/>
<path id="Vector_29" opacity="0.2" d="M94.7555 335.102C98.186 335.448 100.469 336.928 107.441 335.189C119.781 332.116 110.909 308.3 131.381 298.576C135.355 296.572 139.679 295.357 144.116 294.997C144.3 290.639 144.711 286.294 145.35 281.978C145.893 277.74 147.144 273.623 149.052 269.799C143.461 268.084 142.45 266.442 132.923 270.971C112.439 280.695 115.511 305.782 103.233 308.855C93.4352 311.323 92.8922 307.386 85.4512 309.213C88.9311 314.149 91.6212 323.762 94.336 333.893C94.5457 334.349 94.6445 334.683 94.7555 335.102Z" fill="#92E3A9"/>
<g id="Group_3" style="mix-blend-mode:multiply">
<g id="Vector_30" style="mix-blend-mode:multiply" opacity="0.2">
<path d="M74.604 314.013C68.8659 317.962 65.4478 323.885 63.498 328.883C64.0269 330.855 64.6781 332.792 65.4478 334.683C69.8038 345.023 74.4436 348.133 80.4038 348.084C79.492 346.448 78.6881 344.753 77.9975 343.012C74.2338 333.671 73.222 321.787 74.604 314.013Z" fill="#92E3A9"/>
</g>
</g>
<g id="Vector_31" style="mix-blend-mode:multiply" opacity="0.2">
<path d="M332.942 103.925L330.708 103.789C240.713 126.815 204.1 235.284 191.501 287.556C192.18 292.751 192.92 297.848 193.722 302.808C195.252 302.512 194.191 306.115 195.363 306.054C195.363 306.054 269.008 289.419 323.292 288.087C377.576 286.754 404.736 285.458 404.736 285.458C404.736 285.458 373.22 160.331 360.213 133.541C347.207 106.75 341.592 104.319 332.942 103.925Z" fill="#92E3A9"/>
</g>
</g>
<path id="Vector_32" d="M360.213 133.541C347.206 106.701 341.592 104.369 332.941 103.925C324.291 103.48 303.868 100.938 281.113 104.579C281.113 104.579 217.636 103.468 168.523 133.22C117.251 164.28 92.2991 191.563 88.8069 205.705C85.3147 219.847 73.3942 256.694 67.7425 277.82C62.0908 298.946 58.2407 317.555 65.4473 334.658C69.8033 344.999 74.4431 348.108 80.4033 348.059C79.4915 346.423 78.6876 344.729 77.997 342.987C72.0738 328.315 72.7896 307.325 79.5519 305.967C86.3142 304.61 90.3494 318.665 94.4339 333.992C95.2447 337.37 96.3429 340.672 97.7164 343.864C107.823 340.05 124.013 331.524 145.534 322.663C143.491 309.203 143.445 295.514 145.398 282.04C148.582 260.976 162.045 256.324 167.906 269.145C172.756 279.708 174.558 303.351 175.039 311.323C183.677 308.349 190.908 306.387 195.363 306.115C195.363 306.115 269.008 289.481 323.292 288.148C377.575 286.816 404.736 285.52 404.736 285.52C404.736 285.52 373.219 160.331 360.213 133.541Z" stroke="#263238" stroke-linecap="round" stroke-linejoin="round"/>
<path id="Vector_33" opacity="0.2" d="M90.8311 268.984C91.6782 269.689 92.7092 270.137 93.8025 270.274C94.8958 270.412 96.0056 270.234 97.0011 269.762C100.888 268.207 101.283 262.358 101.283 262.358L107.108 261.975L108.28 243.7L95.4462 248.747C95.4462 248.747 92.0034 266.652 90.8311 268.984Z" fill="#92E3A9"/>
<path id="Vector_34" d="M73.9993 322.429C70.3145 324.387 66.8303 326.702 63.5967 329.339C64.1083 331.147 64.7264 332.923 65.4477 334.658C69.8037 344.999 74.4435 348.108 80.4038 348.059C79.4919 346.423 78.6881 344.729 77.9975 342.987C75.4677 336.423 74.1143 329.463 73.9993 322.429Z" fill="#263238" stroke="#263238" stroke-width="0.75" stroke-linecap="round" stroke-linejoin="round"/>
<path id="Vector_35" d="M93.6563 312.236C93.3223 312.234 92.9949 312.143 92.7084 311.972C92.4218 311.8 92.1866 311.555 92.0274 311.261C91.8028 310.835 91.7545 310.337 91.893 309.876C92.0314 309.414 92.3456 309.025 92.7678 308.793C93.064 308.633 117.078 293.751 136.97 283.175C137.184 283.061 137.42 282.99 137.662 282.967C137.904 282.944 138.148 282.968 138.381 283.039C138.613 283.11 138.83 283.226 139.017 283.381C139.205 283.536 139.36 283.726 139.475 283.94C139.589 284.155 139.66 284.39 139.683 284.632C139.707 284.874 139.682 285.119 139.611 285.351C139.54 285.584 139.424 285.8 139.269 285.988C139.114 286.176 138.924 286.331 138.71 286.445C118.83 297.009 94.8286 311.878 94.5324 312.039C94.2623 312.179 93.9605 312.247 93.6563 312.236Z" fill="#263238" stroke="#263238" stroke-miterlimit="10"/>
<path id="Vector_36" d="M125.05 188.54L124.199 209.728C124.013 212.615 125.692 214.01 127.901 212.763L162.021 190.551C163.275 189.677 164.286 188.498 164.96 187.125C165.633 185.752 165.947 184.23 165.871 182.703L165.661 159.072C165.414 156.925 163.958 156.049 162.169 156.974C155.752 160.294 143.363 171.523 128.555 181.975C127.551 182.77 126.722 183.763 126.119 184.893C125.516 186.022 125.152 187.264 125.05 188.54Z" fill="#92E3A9" stroke="#263238" stroke-linecap="round" stroke-linejoin="round"/>
<path id="Vector_37" d="M148.101 182.567L164.772 186.64" stroke="#263238" stroke-linecap="round" stroke-linejoin="round"/>
<path id="Vector_38" d="M125.296 212.862L135.587 190.132" stroke="#263238" stroke-linecap="round" stroke-linejoin="round"/>
<g id="Vector_39">
<path d="M125.247 187.837L140.376 189.725C141.943 189.959 143.893 188.663 145.312 186.417L165.056 158.146" fill="#DBF4FF"/>
<path d="M125.247 187.837L140.376 189.725C141.943 189.959 143.893 188.663 145.312 186.417L165.056 158.146" stroke="#263238" stroke-linecap="round" stroke-linejoin="round"/>
</g>
<path id="Vector_40" d="M209.714 149.175L213.219 202.237C213.31 203.769 213.712 205.266 214.4 206.637C215.089 208.008 216.05 209.225 217.224 210.212C218.399 211.2 219.762 211.937 221.231 212.38C222.7 212.823 224.244 212.962 225.769 212.788L343.64 197.486C345.264 197.299 346.828 196.762 348.224 195.911C349.62 195.06 350.814 193.917 351.725 192.559C352.636 191.201 353.24 189.662 353.498 188.048C353.755 186.433 353.659 184.783 353.216 183.209L338.334 130.591C337.63 128.091 336.083 125.911 333.956 124.42C331.828 122.929 329.251 122.219 326.66 122.41C307.558 123.817 261.74 127.926 218.488 137.563C215.891 138.153 213.586 139.642 211.981 141.767C210.375 143.892 209.572 146.516 209.714 149.175Z" fill="#DBF4FF" stroke="#263238" stroke-linecap="round" stroke-linejoin="round"/>
<path id="Vector_41" d="M297.328 165.625L351.143 191.119" stroke="#263238" stroke-linecap="round" stroke-linejoin="round"/>
<path id="Vector_42" d="M217.686 210.456L263.134 169.783" stroke="#263238" stroke-linecap="round" stroke-linejoin="round"/>
<path id="Vector_43" d="M210.109 147.781L275.326 174.596C277.775 175.596 280.461 175.864 283.059 175.366C285.657 174.869 288.055 173.628 289.962 171.795L336.446 127.901" stroke="#263238" stroke-linecap="round" stroke-linejoin="round"/>
<path id="Vector_44" d="M344.218 204.902C357.43 204.577 367.881 193.787 367.562 180.802C367.242 167.818 356.272 157.555 343.06 157.88C329.848 158.206 319.397 168.995 319.716 181.98C320.036 194.965 331.006 205.227 344.218 204.902Z" fill="#FF0E0E"/>
<path id="Vector_45" d="M340.417 194.131H340.355C339.965 194.132 339.581 194.041 339.234 193.865C338.886 193.689 338.586 193.434 338.356 193.119L330.47 182.235C330.086 181.705 329.928 181.044 330.031 180.397C330.134 179.75 330.489 179.171 331.02 178.786C331.55 178.402 332.211 178.244 332.858 178.347C333.505 178.449 334.084 178.805 334.469 179.335L340.355 187.455L354.422 168.02C354.807 167.489 355.386 167.134 356.033 167.031C356.68 166.928 357.341 167.086 357.871 167.47C358.402 167.855 358.757 168.434 358.86 169.081C358.963 169.728 358.805 170.389 358.421 170.92L342.379 193.132C342.151 193.439 341.856 193.689 341.515 193.862C341.175 194.036 340.799 194.128 340.417 194.131Z" fill="white"/>
<path id="Vector_46" d="M263.171 247.883C263.171 247.883 305.127 239.837 333.879 240.405L335.607 247.315C335.607 247.315 275.239 250.178 263.739 255.953L263.171 247.883Z" fill="#263238" stroke="#263238" stroke-width="0.75" stroke-linecap="round" stroke-linejoin="round"/>
<path id="Vector_47" d="M263.739 255.929L264.973 262.839C265.101 263.609 265.525 264.299 266.154 264.76C266.784 265.221 267.569 265.418 268.342 265.307C278.868 263.802 315.814 258.73 334.978 259.199C335.45 259.213 335.919 259.116 336.346 258.915C336.774 258.714 337.148 258.415 337.437 258.042C337.727 257.669 337.925 257.233 338.014 256.769C338.104 256.306 338.082 255.827 337.952 255.373L335.657 247.34" stroke="#263238" stroke-linecap="round" stroke-linejoin="round"/>
<path id="Vector_48" d="M110.636 243.724L110.402 215.219L111.821 185.911C111.831 185.631 111.757 185.354 111.608 185.117C111.458 184.879 111.241 184.692 110.984 184.58C110.726 184.468 110.441 184.436 110.166 184.489C109.89 184.542 109.637 184.676 109.439 184.875C104.133 190.305 95.0506 198.523 92.3605 205.261C88.8683 213.985 84.7344 256.928 84.7344 256.928L110.636 243.724Z" fill="#263238" stroke="#263238" stroke-width="0.75" stroke-linecap="round" stroke-linejoin="round"/>
<path id="Vector_49" d="M77.7751 237.999H73.6412C71.5353 237.999 69.8281 239.706 69.8281 241.812V263.111C69.8281 265.216 71.5353 266.924 73.6412 266.924H77.7751C79.881 266.924 81.5882 265.216 81.5882 263.111V241.812C81.5882 239.706 79.881 237.999 77.7751 237.999Z" fill="#263238" stroke="#263238" stroke-width="0.75" stroke-linecap="round" stroke-linejoin="round"/>
<g id="man">
<path id="Vector_50" d="M80.3789 218.107C82.3358 218.482 84.247 219.065 86.08 219.846C87.5999 220.594 88.9812 221.596 90.1645 222.808L96.3345 214.651C96.3345 214.651 87.2893 210.863 85.5741 208.555L83.8711 206.235L80.3789 218.107Z" fill="white"/>
<g id="Group_4">
<g id="Vector_51" style="mix-blend-mode:multiply" opacity="0.5">
<path d="M85.5617 208.555L83.9698 206.347L83.7847 206.47L80.3789 218.07C80.3789 218.07 81.0329 218.193 81.9584 218.415L90.7815 212.023C88.8532 211.179 87.0868 210.006 85.5617 208.555Z" fill="#92E3A9"/>
</g>
</g>
<path id="Vector_52" d="M80.3789 218.107C82.3358 218.482 84.247 219.065 86.08 219.846C87.5999 220.594 88.9812 221.596 90.1645 222.808L96.3345 214.651C96.3345 214.651 87.2893 210.863 85.5741 208.555L83.8711 206.235L80.3789 218.107Z" stroke="#263238" stroke-width="0.75" stroke-linecap="round" stroke-linejoin="round"/>
<path id="Vector_53" d="M93.4099 211.184L85.8701 220.797L86.8943 224.067L98.3829 212.134L93.4099 211.184Z" fill="#92E3A9" stroke="#263238" stroke-linecap="round" stroke-linejoin="round"/>
<path id="Vector_54" d="M81.3415 184.023C76.245 180.075 62.9672 182.592 60.3635 191.946C58.7593 197.709 59.6477 206.347 59.6477 206.347L74.7766 203.138L76.0106 205.002C78.4786 208.704 83.8218 206.236 85.2039 205.002C85.9566 204.347 85.9073 202.422 85.7098 200.831L86.3145 200.695C86.3145 200.695 86.4255 187.985 81.3415 184.023Z" fill="#263238" stroke="#263238" stroke-width="0.75" stroke-linecap="round" stroke-linejoin="round"/>
<path id="Vector_55" d="M75.6896 202.003C69.0493 201.263 62.3278 201.902 55.9456 203.879C46.0736 207.186 44.5557 210.049 51.6266 209.876C58.6974 209.703 75.6896 202.003 75.6896 202.003Z" fill="#263238" stroke="#263238" stroke-width="0.75" stroke-linecap="round" stroke-linejoin="round"/>
<path id="Vector_56" d="M63.4976 198.412C64.6493 198.412 65.583 197.136 65.583 195.561C65.583 193.987 64.6493 192.711 63.4976 192.711C62.3458 192.711 61.4121 193.987 61.4121 195.561C61.4121 197.136 62.3458 198.412 63.4976 198.412Z" fill="#92E3A9"/>
<path id="Vector_57" d="M110.402 215.219C110.402 215.219 96.8896 211.788 92.731 214.948C88.5724 218.107 87.5112 223.326 88.8439 229.657C90.1766 235.987 93.422 252.634 93.422 252.634L110.636 243.724L110.402 215.219Z" fill="#263238" stroke="#263238" stroke-width="0.75" stroke-linecap="round" stroke-linejoin="round"/>
<path id="Vector_58" d="M62.3994 207.926C62.3994 207.926 63.1522 209.789 64.4108 213.059C65.6695 216.33 72.4318 223.228 75.739 223.623C79.0461 224.017 83.0072 211.998 83.6366 209.518C83.8463 208.703 84.0561 207.395 84.0561 207.395C84.0561 207.395 88.2147 205.433 87.2522 203.064C86.2897 200.695 84.3399 199.609 83.4144 200.337C82.4889 201.065 82.3285 204.138 80.9464 204.162C79.5644 204.187 78.8116 203.755 77.59 202.126C76.3683 200.497 63.7075 203.879 62.3994 207.926Z" fill="white"/>
<g id="Group_5">
<path id="Vector_59" opacity="0.5" d="M77.5653 202.126C76.3313 200.51 63.7075 203.891 62.3994 207.926L63.1151 209.752C67.9407 206.842 73.1846 204.691 78.6635 203.373C78.2542 202.997 77.886 202.58 77.5653 202.126Z" fill="#92E3A9"/>
<g id="Group_6" style="mix-blend-mode:multiply">
<g id="Vector_60" style="mix-blend-mode:multiply" opacity="0.5">
<path d="M87.0913 202.731C86.0794 200.608 84.2901 199.646 83.3893 200.337C82.8246 201.074 82.4058 201.911 82.1553 202.805C83.7944 202.621 85.4474 202.597 87.0913 202.731Z" fill="#92E3A9"/>
</g>
</g>
</g>
<path id="Vector_61" d="M62.3994 207.926C62.3994 207.926 63.1522 209.789 64.4108 213.059C65.6695 216.33 72.4318 223.228 75.739 223.623C79.0461 224.017 83.0072 211.998 83.6366 209.518C83.8463 208.703 84.0561 207.395 84.0561 207.395C84.0561 207.395 88.2147 205.433 87.2522 203.064C86.2897 200.695 84.3399 199.609 83.4144 200.337C82.4889 201.065 82.3285 204.138 80.9464 204.162C79.5644 204.187 78.8116 203.755 77.59 202.126C76.3683 200.497 63.7075 203.879 62.3994 207.926Z" stroke="#263238" stroke-width="0.75" stroke-linecap="round" stroke-linejoin="round"/>
<path id="Vector_62" d="M66.8788 208.815C67.1009 209.567 67.0269 210.258 66.7307 210.345C66.4345 210.431 66.0026 209.888 65.7805 209.111C65.5584 208.333 65.6324 207.667 65.9286 207.581C66.2248 207.494 66.6567 208.086 66.8788 208.815Z" fill="#263238" stroke="#263238" stroke-miterlimit="10"/>
<path id="Vector_63" d="M64.584 206.717C66.3116 206.223 67.052 207.519 67.2618 208.716L67.5826 210.135L68.6562 215.626L70.2851 214.935" stroke="#263238" stroke-width="0.5" stroke-linecap="round" stroke-linejoin="round"/>
<path id="Vector_64" d="M71.6172 207.136C71.9925 206.725 72.4596 206.407 72.9807 206.21C73.5017 206.013 74.0619 205.941 74.6158 206.001" stroke="#263238" stroke-width="0.5" stroke-linecap="round" stroke-linejoin="round"/>
<path id="Vector_65" d="M73.0484 203.718C72.3464 203.865 71.7021 204.212 71.1939 204.718C70.6856 205.225 70.3353 205.867 70.1855 206.569" stroke="#263238" stroke-width="0.5" stroke-linecap="round" stroke-linejoin="round"/>
<path id="Vector_66" d="M71.7529 216.712C71.7529 216.712 75.3315 215.996 75.6154 213.43" stroke="#263238" stroke-width="0.5" stroke-linecap="round" stroke-linejoin="round"/>
<g id="hand">
<path id="Vector_67" d="M88.9546 249.981C88.9546 249.981 88.2266 256.373 87.3751 257.274C86.5237 258.174 64.0649 239.307 62.6951 237.53C61.3254 235.753 62.2632 229.41 62.6951 227.423C63.127 225.436 62.399 224.351 60.2271 225.72C58.0553 227.09 58.6353 232.791 58.6353 232.791C58.6353 232.791 52.0087 231.199 50.6883 231.014C49.3679 230.829 48.2203 232.47 48.4177 233.778C48.6152 235.086 50.3551 235.197 50.3551 235.197C49.91 237.092 50.0345 239.075 50.713 240.899C51.8729 243.292 53.181 244.798 55.649 245.39C58.1953 245.787 60.7734 245.944 63.3491 245.859C63.3491 245.859 74.8253 256.792 78.1571 260.877C81.4889 264.961 88.5104 270.514 92.0026 269.515C95.4948 268.515 98.8266 251.079 98.8266 251.079L88.9546 249.981Z" fill="white"/>
<g id="Group_7">
<g id="Vector_68" style="mix-blend-mode:multiply" opacity="0.5">
<path d="M87.3757 257.274L93.9406 259.458C94.1488 260.835 93.8578 262.241 93.1201 263.422C92.3824 264.604 91.2465 265.482 89.9178 265.899C87.0179 266.862 81.8104 263.567 78.1084 260.791L78.2195 260.926C81.613 265.023 88.5727 270.564 92.0649 269.564C95.5572 268.565 98.889 251.128 98.889 251.128L88.9553 249.894C88.9553 249.894 88.2272 256.373 87.3757 257.274Z" fill="#92E3A9"/>
</g>
</g>
<path id="Vector_69" d="M88.9546 249.981C88.9546 249.981 88.2266 256.373 87.3751 257.274C86.5237 258.174 64.0649 239.307 62.6951 237.53C61.3254 235.753 62.2632 229.41 62.6951 227.423C63.127 225.436 62.399 224.351 60.2271 225.72C58.0553 227.09 58.6353 232.791 58.6353 232.791C58.6353 232.791 52.0087 231.199 50.6883 231.014C49.3679 230.829 48.2203 232.47 48.4177 233.778C48.6152 235.086 50.3551 235.197 50.3551 235.197C49.91 237.092 50.0345 239.075 50.713 240.899C51.8729 243.292 53.181 244.798 55.649 245.39C58.1953 245.787 60.7734 245.944 63.3491 245.859C63.3491 245.859 74.8253 256.792 78.1571 260.877C81.4889 264.961 88.5104 270.514 92.0026 269.515C95.4948 268.515 98.8266 251.079 98.8266 251.079L88.9546 249.981Z" stroke="#263238" stroke-width="0.75" stroke-linecap="round" stroke-linejoin="round"/>
<path id="Vector_70" d="M66.5086 240.997L63.3496 245.909L64.9661 247.007L68.1992 242.379L66.5086 240.997Z" fill="#263238" stroke="#263238" stroke-miterlimit="10"/>
<path id="Vector_71" d="M65.4225 245.625C66.104 245.625 66.6565 245.072 66.6565 244.391C66.6565 243.709 66.104 243.157 65.4225 243.157C64.741 243.157 64.1885 243.709 64.1885 244.391C64.1885 245.072 64.741 245.625 65.4225 245.625Z" fill="white" stroke="#263238" stroke-width="0.75" stroke-linecap="round" stroke-linejoin="round"/>
<path id="Vector_72" d="M102.134 259.236L84.0684 254.201C84.0684 254.201 85.6602 223.351 88.4491 218.131C92.7927 210.024 102.751 213.677 104.627 223.869C106.379 233.495 102.134 259.236 102.134 259.236Z" fill="#92E3A9" stroke="#263238" stroke-linecap="round" stroke-linejoin="round"/>
</g>
<path id="Vector_73" d="M84.5 250.771C84.5 250.771 94.372 253.041 100.382 255.016" stroke="#263238" stroke-width="0.5" stroke-linecap="round" stroke-linejoin="round"/>
<path id="Vector_74" d="M100.135 212.739C100.135 212.739 106.009 213.195 109.846 216.354" stroke="#92E3A9" stroke-width="0.5" stroke-linecap="round" stroke-linejoin="round"/>
</g>
<path id="Vector_75" d="M203.643 291.653C203.643 291.653 177.334 300.933 174.928 303.462C172.522 305.992 172.768 315.864 178.445 320.664C184.121 325.465 224.584 314.581 253.509 311.409C282.434 308.238 345.936 303.573 371.85 302.315C397.764 301.056 409.548 304.474 411.819 296.392C414.089 288.309 413.806 279.671 408.87 277.919C403.934 276.166 314 261.766 203.643 291.653Z" fill="#263238" stroke="#263238" stroke-width="0.75" stroke-linecap="round" stroke-linejoin="round"/>
<path id="Vector_76" d="M173.052 308.855C173.052 308.855 174.286 319.554 180.863 321.195C187.44 322.836 265.602 308.028 311.667 306.387C357.732 304.746 398.047 303.512 398.047 303.512" stroke="white" stroke-width="0.5" stroke-linecap="round" stroke-linejoin="round"/>
<path id="Vector_77" d="M211.232 314.285C241.786 306.881 304.634 296.416 410.388 299.39" stroke="white" stroke-width="0.5" stroke-linecap="round" stroke-linejoin="round"/>
<path id="Vector_78" d="M186.182 320.8C186.182 320.8 193.203 319.097 203.877 316.185" stroke="white" stroke-width="0.5" stroke-linecap="round" stroke-linejoin="round"/>
<path id="Vector_79" d="M192.623 322.022C192.955 326.609 192.831 331.218 192.253 335.781" stroke="white" stroke-width="0.5" stroke-linecap="round" stroke-linejoin="round"/>
<path id="Vector_80" d="M191.501 124.693C191.501 124.693 185.615 131.591 185.158 137.773" stroke="#263238" stroke-width="0.75" stroke-linecap="round" stroke-linejoin="round"/>
<path id="Vector_81" d="M184.541 142.759C184.541 142.759 180.111 213.232 191.834 288.235" stroke="#263238" stroke-width="0.75" stroke-linecap="round" stroke-linejoin="round"/>
<path id="Vector_82" d="M185.935 224.19C185.935 224.19 176.372 227.522 176.249 231.841C175.928 243.453 177.149 268.232 179.679 270.638C182.209 273.044 190.069 266.677 190.069 266.677C190.069 266.677 201.175 267.639 202.409 265.147C203.643 262.654 199.016 227.571 198.325 224.511C197.634 221.451 185.935 224.19 185.935 224.19Z" fill="#92E3A9" stroke="#263238" stroke-linecap="round" stroke-linejoin="round"/>
<path id="Vector_83" d="M385.695 240.899C388.184 242.115 390.889 242.828 393.654 242.996C390.594 231.495 387.126 218.687 383.547 205.902C380.314 205.68 376.143 205.68 376.23 207.136C376.292 209.629 382.573 239.097 385.695 240.899Z" fill="#92E3A9" stroke="#263238" stroke-linecap="round" stroke-linejoin="round"/>
<path id="Vector_84" d="M184.565 227.818C184.565 227.818 184.985 250.03 186.626 258.668" stroke="#263238" stroke-width="0.75" stroke-linecap="round" stroke-linejoin="round"/>
<path id="Vector_85" d="M299.92 232.952C299.92 232.952 354.981 224.079 419.137 235.42" stroke="#263238" stroke-linecap="round" stroke-linejoin="round"/>
<path id="Vector_86" d="M467.546 267.738C471.334 268.873 475.061 270.07 478.652 271.354" stroke="#263238" stroke-linecap="round" stroke-linejoin="round"/>
<path id="Vector_87" d="M368.69 250.98C368.69 250.98 412.349 253.633 454.157 264.085" stroke="#263238" stroke-linecap="round" stroke-linejoin="round"/>
<path id="Vector_88" d="M235.813 352.65C271.762 347.156 308.284 346.504 344.406 350.712" stroke="#263238" stroke-linecap="round" stroke-linejoin="round"/>
<path id="Vector_89" d="M231.297 346.837C231.297 346.837 257.137 343.604 265.54 342.963" stroke="#263238" stroke-linecap="round" stroke-linejoin="round"/>
<path id="Vector_90" d="M404.354 107.17C408.056 107.701 411.758 108.404 415.114 109.206" stroke="#263238" stroke-linecap="round" stroke-linejoin="round"/>
<path id="Vector_91" d="M351.155 105.948C366.36 104.874 381.625 104.977 396.813 106.257" stroke="#263238" stroke-linecap="round" stroke-linejoin="round"/>
<path id="Vector_92" d="M152.062 255.435C152.062 255.435 188.933 237.974 242.279 233.124" stroke="#263238" stroke-linecap="round" stroke-linejoin="round"/>
<path id="Vector_93" d="M214.156 223.413C214.156 223.413 236.479 217.601 270.439 215.651" stroke="#263238" stroke-linecap="round" stroke-linejoin="round"/>
<path id="Vector_94" d="M151.457 346.702C155.938 354.728 163.169 360.863 171.818 363.978" stroke="#263238" stroke-linecap="round" stroke-linejoin="round"/>
<path id="Vector_95" d="M150.223 352.255C150.223 352.255 155.776 360.893 163.18 364.595" stroke="#263238" stroke-linecap="round" stroke-linejoin="round"/>
<path id="Vector_96" d="M332.238 321.405C332.238 321.405 335.94 338.681 350.748 346.085" stroke="#263238" stroke-linecap="round" stroke-linejoin="round"/>
<path id="Vector_97" d="M334.089 336.83C337.023 341.128 341.077 344.541 345.812 346.702" stroke="#263238" stroke-linecap="round" stroke-linejoin="round"/>
<path id="Vector_98" d="M89.9551 370.098C89.9551 370.098 93.6571 376.268 106.614 376.268" stroke="#263238" stroke-linecap="round" stroke-linejoin="round"/>
<path id="Vector_99" d="M87.4863 373.8C92.2068 377.726 98.0254 380.097 104.145 380.587" stroke="#263238" stroke-linecap="round" stroke-linejoin="round"/>
</g>
</g>
<g id="ground">
<g id="freepik--Floor--inject-1--inject-16">
<path id="Vector_100" d="M254.299 358.573C221.526 360.356 188.994 365.223 157.134 373.109L157.899 374.257C157.899 374.257 185.047 368.494 235.221 380.834C285.396 393.174 288.703 403.046 343.813 403.046C398.924 403.046 452.405 389.892 452.405 389.892L445.717 386.19C396.234 365.249 328.413 354.427 254.299 358.573Z" fill="#92E3A9"/>
<path id="Vector_101" opacity="0.5" d="M254.299 358.573C221.526 360.356 188.994 365.223 157.134 373.109L157.899 374.257C157.899 374.257 185.047 368.494 235.221 380.834C285.396 393.174 288.703 403.046 343.813 403.046C398.924 403.046 452.405 389.892 452.405 389.892L445.717 386.19C396.234 365.249 328.413 354.427 254.299 358.573Z" fill="white"/>
<path id="Vector_102" d="M133.564 386.807C133.564 386.807 198.349 376.935 254.496 414.572" stroke="#263238" stroke-linecap="round" stroke-linejoin="round"/>
<path id="Vector_103" d="M201.435 400.998C201.435 400.998 227.966 409.019 244.008 426.295" stroke="#263238" stroke-linecap="round" stroke-linejoin="round"/>
<path id="Vector_104" d="M358.152 369.531C358.152 369.531 395.789 373.233 429.724 393.594" stroke="#263238" stroke-linecap="round" stroke-linejoin="round"/>
<path id="Vector_105" d="M475.506 401.417C482.283 405.565 488.735 410.222 494.806 415.349" stroke="#263238" stroke-linecap="round" stroke-linejoin="round"/>
<path id="Vector_106" d="M33.9932 430.527C78.9725 392.273 160.244 363.891 254.299 358.573C340.149 353.698 417.582 369.074 467.781 396.827" stroke="#263238" stroke-linecap="round" stroke-linejoin="round"/>
<path id="Vector_107" d="M308.176 368.914C308.176 368.914 347.047 370.765 372.961 379.403" stroke="#263238" stroke-linecap="round" stroke-linejoin="round"/>
</g>
</g>
<g id="clouds">
<path id="Vector_108" d="M131.936 75.9621C131.936 75.9621 130.702 58.8959 105.713 58.2789C80.7247 57.6619 87.4129 75.3575 80.7123 79.6271C74.0117 83.8968 72.173 77.1591 65.4601 81.4534C58.7471 85.7478 61.7581 94.2624 56.3161 95.484C50.8742 96.7057 43.5072 89.9927 36.8066 94.25C30.106 98.5073 30.0936 102.172 27.0457 102.172C23.9977 102.172 17.9017 99.7043 14.2491 102.172C10.5964 104.64 6.31445 107.627 6.31445 107.627H160.564C160.564 107.627 162.391 102.135 155.628 98.4826C148.866 94.83 145.868 97.8656 143.437 94.7806C141.006 91.6956 150.224 83.8968 131.936 75.9621Z" fill="#1362AA"/>
<path id="Vector_109" d="M223.585 10.6465C223.585 10.6465 222.845 0.37962 207.815 0.00942013C192.785 -0.36078 196.807 10.2886 192.772 12.8554C188.737 15.4221 187.639 11.3869 183.604 13.9536C179.568 16.5203 181.407 21.6538 178.1 22.3818C174.793 23.1099 170.4 19.0871 166.365 21.6538C162.329 24.2205 162.329 26.417 160.491 26.417C158.652 26.417 154.987 24.9609 152.791 26.417C150.594 27.8732 148.027 29.7242 148.027 29.7242H240.824C240.824 29.7242 241.922 26.417 237.887 24.2205C233.852 22.024 232.026 23.8503 230.557 22.024C229.089 20.1977 234.592 15.4221 223.585 10.6465Z" fill="#1362AA"/>
<path id="Vector_110" opacity="0.7" d="M131.936 75.9621C131.936 75.9621 130.702 58.8959 105.713 58.2789C80.7247 57.6619 87.4129 75.3575 80.7123 79.6271C74.0117 83.8968 72.173 77.1591 65.4601 81.4534C58.7471 85.7478 61.7581 94.2624 56.3161 95.484C50.8742 96.7057 43.5072 89.9927 36.8066 94.25C30.106 98.5073 30.0936 102.172 27.0457 102.172C23.9977 102.172 17.9017 99.7043 14.2491 102.172C10.5964 104.64 6.31445 107.627 6.31445 107.627H160.564C160.564 107.627 162.391 102.135 155.628 98.4826C148.866 94.83 145.868 97.8656 143.437 94.7806C141.006 91.6956 150.224 83.8968 131.936 75.9621Z" fill="white"/>
<path id="Vector_111" opacity="0.8" d="M223.585 10.6465C223.585 10.6465 222.845 0.37962 207.815 0.00942013C192.785 -0.36078 196.807 10.2886 192.772 12.8554C188.737 15.4221 187.639 11.3869 183.604 13.9536C179.568 16.5203 181.407 21.6538 178.1 22.3818C174.793 23.1099 170.4 19.0871 166.365 21.6538C162.329 24.2205 162.329 26.417 160.491 26.417C158.652 26.417 154.987 24.9609 152.791 26.417C150.594 27.8732 148.027 29.7242 148.027 29.7242H240.824C240.824 29.7242 241.922 26.417 237.887 24.2205C233.852 22.024 232.026 23.8503 230.557 22.024C229.089 20.1977 234.592 15.4221 223.585 10.6465Z" fill="white"/>
</g>
</g>
</svg>
